{
	"patcher" : 	{
		"fileversion" : 1,
		"appversion" : 		{
			"major" : 8,
			"minor" : 6,
			"revision" : 2,
			"architecture" : "x64",
			"modernui" : 1
		}
,
		"classnamespace" : "box",
		"rect" : [ 429.0, 149.0, 1487.0, 1081.0 ],
		"bglocked" : 0,
		"openinpresentation" : 0,
		"default_fontsize" : 12.0,
		"default_fontface" : 0,
		"default_fontname" : "Arial",
		"gridonopen" : 1,
		"gridsize" : [ 15.0, 15.0 ],
		"gridsnaponopen" : 1,
		"objectsnaponopen" : 1,
		"statusbarvisible" : 2,
		"toolbarvisible" : 1,
		"lefttoolbarpinned" : 0,
		"toptoolbarpinned" : 0,
		"righttoolbarpinned" : 0,
		"bottomtoolbarpinned" : 0,
		"toolbars_unpinned_last_save" : 0,
		"tallnewobj" : 0,
		"boxanimatetime" : 200,
		"enablehscroll" : 1,
		"enablevscroll" : 1,
		"devicewidth" : 0.0,
		"description" : "",
		"digest" : "",
		"tags" : "",
		"style" : "",
		"subpatcher_template" : "",
		"assistshowspatchername" : 0,
		"boxes" : [ 			{
				"box" : 				{
					"format" : 6,
					"id" : "obj-13",
					"maxclass" : "flonum",
					"numinlets" : 1,
					"numoutlets" : 2,
					"outlettype" : [ "", "bang" ],
					"parameter_enable" : 0,
					"patching_rect" : [ 74.124293625354767, 255.963281393051147, 50.0, 22.0 ]
				}

			}
, 			{
				"box" : 				{
					"id" : "obj-10",
					"maxclass" : "newobj",
					"numinlets" : 1,
					"numoutlets" : 0,
					"patching_rect" : [ 74.124293625354767, 314.814806461334229, 51.0, 22.0 ],
					"text" : "s phase"
				}

			}
, 			{
				"box" : 				{
					"id" : "obj-183",
					"maxclass" : "newobj",
					"numinlets" : 0,
					"numoutlets" : 1,
					"outlettype" : [ "" ],
					"patching_rect" : [ 1249.235975801944733, 600.555566310882568, 70.0, 22.0 ],
					"text" : "r msAmp10"
				}

			}
, 			{
				"box" : 				{
					"id" : "obj-184",
					"maxclass" : "newobj",
					"numinlets" : 0,
					"numoutlets" : 1,
					"outlettype" : [ "" ],
					"patching_rect" : [ 993.68040806055069, 600.555566310882568, 63.0, 22.0 ],
					"text" : "r msAmp9"
				}

			}
, 			{
				"box" : 				{
					"id" : "obj-185",
					"maxclass" : "newobj",
					"numinlets" : 0,
					"numoutlets" : 1,
					"outlettype" : [ "" ],
					"patching_rect" : [ 737.013729155063629, 600.555566310882568, 63.0, 22.0 ],
					"text" : "r msAmp8"
				}

			}
, 			{
				"box" : 				{
					"id" : "obj-186",
					"maxclass" : "newobj",
					"numinlets" : 0,
					"numoutlets" : 1,
					"outlettype" : [ "" ],
					"patching_rect" : [ 483.680383741855621, 600.555566310882568, 63.0, 22.0 ],
					"text" : "r msAmp7"
				}

			}
, 			{
				"box" : 				{
					"id" : "obj-187",
					"maxclass" : "newobj",
					"numinlets" : 0,
					"numoutlets" : 1,
					"outlettype" : [ "" ],
					"patching_rect" : [ 228.124816000461578, 600.555566310882568, 63.0, 22.0 ],
					"text" : "r msAmp6"
				}

			}
, 			{
				"box" : 				{
					"id" : "obj-188",
					"maxclass" : "newobj",
					"numinlets" : 0,
					"numoutlets" : 1,
					"outlettype" : [ "" ],
					"patching_rect" : [ 1249.235975801944733, 375.0, 63.0, 22.0 ],
					"text" : "r msAmp5"
				}

			}
, 			{
				"box" : 				{
					"id" : "obj-189",
					"maxclass" : "newobj",
					"numinlets" : 0,
					"numoutlets" : 1,
					"outlettype" : [ "" ],
					"patching_rect" : [ 993.68040806055069, 375.0, 63.0, 22.0 ],
					"text" : "r msAmp4"
				}

			}
, 			{
				"box" : 				{
					"id" : "obj-190",
					"maxclass" : "newobj",
					"numinlets" : 0,
					"numoutlets" : 1,
					"outlettype" : [ "" ],
					"patching_rect" : [ 737.013729155063629, 375.0, 63.0, 22.0 ],
					"text" : "r msAmp3"
				}

			}
, 			{
				"box" : 				{
					"id" : "obj-191",
					"maxclass" : "newobj",
					"numinlets" : 0,
					"numoutlets" : 1,
					"outlettype" : [ "" ],
					"patching_rect" : [ 483.680383741855621, 375.0, 63.0, 22.0 ],
					"text" : "r msAmp2"
				}

			}
, 			{
				"box" : 				{
					"id" : "obj-192",
					"maxclass" : "newobj",
					"numinlets" : 0,
					"numoutlets" : 1,
					"outlettype" : [ "" ],
					"patching_rect" : [ 228.124816000461578, 375.0, 63.0, 22.0 ],
					"text" : "r msAmp1"
				}

			}
, 			{
				"box" : 				{
					"id" : "obj-182",
					"maxclass" : "button",
					"numinlets" : 1,
					"numoutlets" : 1,
					"outlettype" : [ "bang" ],
					"parameter_enable" : 0,
					"patching_rect" : [ 2609.444526672363281, 210.555547714233398, 24.0, 24.0 ]
				}

			}
, 			{
				"box" : 				{
					"id" : "obj-159",
					"maxclass" : "newobj",
					"numinlets" : 1,
					"numoutlets" : 0,
					"patching_rect" : [ 2026.666698932647705, 1001.666696548461914, 72.0, 22.0 ],
					"text" : "s msAmp10"
				}

			}
, 			{
				"box" : 				{
					"id" : "obj-160",
					"maxclass" : "newobj",
					"numinlets" : 1,
					"numoutlets" : 0,
					"patching_rect" : [ 1951.11113977432251, 1001.666696548461914, 65.0, 22.0 ],
					"text" : "s msAmp9"
				}

			}
, 			{
				"box" : 				{
					"id" : "obj-161",
					"maxclass" : "newobj",
					"numinlets" : 1,
					"numoutlets" : 0,
					"patching_rect" : [ 1875.555580615997314, 1001.666696548461914, 65.0, 22.0 ],
					"text" : "s msAmp8"
				}

			}
, 			{
				"box" : 				{
					"id" : "obj-162",
					"maxclass" : "newobj",
					"numinlets" : 1,
					"numoutlets" : 0,
					"patching_rect" : [ 1798.888910293579102, 1001.666696548461914, 65.0, 22.0 ],
					"text" : "s msAmp7"
				}

			}
, 			{
				"box" : 				{
					"id" : "obj-163",
					"maxclass" : "newobj",
					"numinlets" : 1,
					"numoutlets" : 0,
					"patching_rect" : [ 1724.444462299346924, 1001.666696548461914, 65.0, 22.0 ],
					"text" : "s msAmp6"
				}

			}
, 			{
				"box" : 				{
					"id" : "obj-164",
					"maxclass" : "newobj",
					"numinlets" : 1,
					"numoutlets" : 0,
					"patching_rect" : [ 1650.000014305114746, 1001.666696548461914, 65.0, 22.0 ],
					"text" : "s msAmp5"
				}

			}
, 			{
				"box" : 				{
					"id" : "obj-165",
					"maxclass" : "newobj",
					"numinlets" : 1,
					"numoutlets" : 0,
					"patching_rect" : [ 1574.444455146789551, 1001.666696548461914, 65.0, 22.0 ],
					"text" : "s msAmp4"
				}

			}
, 			{
				"box" : 				{
					"id" : "obj-166",
					"maxclass" : "newobj",
					"numinlets" : 1,
					"numoutlets" : 0,
					"patching_rect" : [ 1498.888895988464355, 1001.666696548461914, 65.0, 22.0 ],
					"text" : "s msAmp3"
				}

			}
, 			{
				"box" : 				{
					"id" : "obj-167",
					"maxclass" : "newobj",
					"numinlets" : 1,
					"numoutlets" : 0,
					"patching_rect" : [ 1424.444447994232178, 1001.666696548461914, 65.0, 22.0 ],
					"text" : "s msAmp2"
				}

			}
, 			{
				"box" : 				{
					"id" : "obj-168",
					"maxclass" : "newobj",
					"numinlets" : 1,
					"numoutlets" : 0,
					"patching_rect" : [ 1348.888888835906982, 1001.666696548461914, 65.0, 22.0 ],
					"text" : "s msAmp1"
				}

			}
, 			{
				"box" : 				{
					"format" : 6,
					"id" : "obj-169",
					"maxclass" : "flonum",
					"numinlets" : 1,
					"numoutlets" : 2,
					"outlettype" : [ "", "bang" ],
					"parameter_enable" : 0,
					"patching_rect" : [ 2024.44447660446167, 942.777804851531982, 50.0, 22.0 ]
				}

			}
, 			{
				"box" : 				{
					"format" : 6,
					"id" : "obj-170",
					"maxclass" : "flonum",
					"numinlets" : 1,
					"numoutlets" : 2,
					"outlettype" : [ "", "bang" ],
					"parameter_enable" : 0,
					"patching_rect" : [ 1950.000028610229492, 942.777804851531982, 50.0, 22.0 ]
				}

			}
, 			{
				"box" : 				{
					"format" : 6,
					"id" : "obj-171",
					"maxclass" : "flonum",
					"numinlets" : 1,
					"numoutlets" : 2,
					"outlettype" : [ "", "bang" ],
					"parameter_enable" : 0,
					"patching_rect" : [ 1875.555580615997314, 942.777804851531982, 50.0, 22.0 ]
				}

			}
, 			{
				"box" : 				{
					"format" : 6,
					"id" : "obj-172",
					"maxclass" : "flonum",
					"numinlets" : 1,
					"numoutlets" : 2,
					"outlettype" : [ "", "bang" ],
					"parameter_enable" : 0,
					"patching_rect" : [ 1798.888910293579102, 942.777804851531982, 50.0, 22.0 ]
				}

			}
, 			{
				"box" : 				{
					"format" : 6,
					"id" : "obj-173",
					"maxclass" : "flonum",
					"numinlets" : 1,
					"numoutlets" : 2,
					"outlettype" : [ "", "bang" ],
					"parameter_enable" : 0,
					"patching_rect" : [ 1724.444462299346924, 942.777804851531982, 50.0, 22.0 ]
				}

			}
, 			{
				"box" : 				{
					"format" : 6,
					"id" : "obj-174",
					"maxclass" : "flonum",
					"numinlets" : 1,
					"numoutlets" : 2,
					"outlettype" : [ "", "bang" ],
					"parameter_enable" : 0,
					"patching_rect" : [ 1650.000014305114746, 942.777804851531982, 50.0, 22.0 ]
				}

			}
, 			{
				"box" : 				{
					"format" : 6,
					"id" : "obj-175",
					"maxclass" : "flonum",
					"numinlets" : 1,
					"numoutlets" : 2,
					"outlettype" : [ "", "bang" ],
					"parameter_enable" : 0,
					"patching_rect" : [ 1574.444455146789551, 942.777804851531982, 50.0, 22.0 ]
				}

			}
, 			{
				"box" : 				{
					"format" : 6,
					"id" : "obj-176",
					"maxclass" : "flonum",
					"numinlets" : 1,
					"numoutlets" : 2,
					"outlettype" : [ "", "bang" ],
					"parameter_enable" : 0,
					"patching_rect" : [ 1498.888895988464355, 942.777804851531982, 50.0, 22.0 ]
				}

			}
, 			{
				"box" : 				{
					"format" : 6,
					"id" : "obj-177",
					"maxclass" : "flonum",
					"numinlets" : 1,
					"numoutlets" : 2,
					"outlettype" : [ "", "bang" ],
					"parameter_enable" : 0,
					"patching_rect" : [ 1424.444447994232178, 942.777804851531982, 50.0, 22.0 ]
				}

			}
, 			{
				"box" : 				{
					"format" : 6,
					"id" : "obj-178",
					"maxclass" : "flonum",
					"numinlets" : 1,
					"numoutlets" : 2,
					"outlettype" : [ "", "bang" ],
					"parameter_enable" : 0,
					"patching_rect" : [ 1348.888888835906982, 942.777804851531982, 50.0, 22.0 ]
				}

			}
, 			{
				"box" : 				{
					"id" : "obj-179",
					"maxclass" : "newobj",
					"numinlets" : 1,
					"numoutlets" : 10,
					"outlettype" : [ "float", "float", "float", "float", "float", "float", "float", "float", "float", "float" ],
					"patching_rect" : [ 1348.888888835906982, 882.777801990509033, 694.58902657777071, 22.0 ],
					"text" : "unpack f f f f f f f f f f"
				}

			}
, 			{
				"box" : 				{
					"id" : "obj-180",
					"maxclass" : "multislider",
					"numinlets" : 1,
					"numoutlets" : 2,
					"outlettype" : [ "", "" ],
					"parameter_enable" : 0,
					"patching_rect" : [ 1348.888888835906982, 716.111127376556396, 206.0, 135.0 ],
					"setminmax" : [ 0.0, 1.0 ],
					"size" : 10
				}

			}
, 			{
				"box" : 				{
					"id" : "obj-154",
					"maxclass" : "newobj",
					"numinlets" : 0,
					"numoutlets" : 1,
					"outlettype" : [ "" ],
					"patching_rect" : [ 1173.680416643619537, 599.444455146789551, 77.0, 22.0 ],
					"text" : "r msHmnc10"
				}

			}
, 			{
				"box" : 				{
					"id" : "obj-155",
					"maxclass" : "newobj",
					"numinlets" : 0,
					"numoutlets" : 1,
					"outlettype" : [ "" ],
					"patching_rect" : [ 920.34707123041153, 599.444455146789551, 70.0, 22.0 ],
					"text" : "r msHmnc9"
				}

			}
, 			{
				"box" : 				{
					"id" : "obj-156",
					"maxclass" : "newobj",
					"numinlets" : 0,
					"numoutlets" : 1,
					"outlettype" : [ "" ],
					"patching_rect" : [ 662.569281160831451, 599.444455146789551, 70.0, 22.0 ],
					"text" : "r msHmnc8"
				}

			}
, 			{
				"box" : 				{
					"id" : "obj-157",
					"maxclass" : "newobj",
					"numinlets" : 0,
					"numoutlets" : 1,
					"outlettype" : [ "" ],
					"patching_rect" : [ 409.235935747623444, 599.444455146789551, 70.0, 22.0 ],
					"text" : "r msHmnc7"
				}

			}
, 			{
				"box" : 				{
					"id" : "obj-158",
					"maxclass" : "newobj",
					"numinlets" : 0,
					"numoutlets" : 1,
					"outlettype" : [ "" ],
					"patching_rect" : [ 152.569256842136383, 599.444455146789551, 70.0, 22.0 ],
					"text" : "r msHmnc6"
				}

			}
, 			{
				"box" : 				{
					"id" : "obj-149",
					"maxclass" : "newobj",
					"numinlets" : 0,
					"numoutlets" : 1,
					"outlettype" : [ "" ],
					"patching_rect" : [ 1172.56930547952652, 375.0, 70.0, 22.0 ],
					"text" : "r msHmnc5"
				}

			}
, 			{
				"box" : 				{
					"id" : "obj-150",
					"maxclass" : "newobj",
					"numinlets" : 0,
					"numoutlets" : 1,
					"outlettype" : [ "" ],
					"patching_rect" : [ 917.013737738132477, 375.0, 70.0, 22.0 ],
					"text" : "r msHmnc4"
				}

			}
, 			{
				"box" : 				{
					"id" : "obj-151",
					"maxclass" : "newobj",
					"numinlets" : 0,
					"numoutlets" : 1,
					"outlettype" : [ "" ],
					"patching_rect" : [ 663.680392324924469, 375.0, 70.0, 22.0 ],
					"text" : "r msHmnc3"
				}

			}
, 			{
				"box" : 				{
					"id" : "obj-152",
					"maxclass" : "newobj",
					"numinlets" : 0,
					"numoutlets" : 1,
					"outlettype" : [ "" ],
					"patching_rect" : [ 408.124824583530426, 375.0, 70.0, 22.0 ],
					"text" : "r msHmnc2"
				}

			}
, 			{
				"box" : 				{
					"id" : "obj-153",
					"maxclass" : "newobj",
					"numinlets" : 0,
					"numoutlets" : 1,
					"outlettype" : [ "" ],
					"patching_rect" : [ 152.569256842136383, 375.0, 70.0, 22.0 ],
					"text" : "r msHmnc1"
				}

			}
, 			{
				"box" : 				{
					"id" : "obj-145",
					"maxclass" : "newobj",
					"numinlets" : 1,
					"numoutlets" : 0,
					"patching_rect" : [ 2027.777810096740723, 659.4444580078125, 79.0, 22.0 ],
					"text" : "s msHmnc10"
				}

			}
, 			{
				"box" : 				{
					"id" : "obj-146",
					"maxclass" : "newobj",
					"numinlets" : 1,
					"numoutlets" : 0,
					"patching_rect" : [ 1951.11113977432251, 659.4444580078125, 72.0, 22.0 ],
					"text" : "s msHmnc9"
				}

			}
, 			{
				"box" : 				{
					"id" : "obj-147",
					"maxclass" : "newobj",
					"numinlets" : 1,
					"numoutlets" : 0,
					"patching_rect" : [ 1876.666691780090332, 659.4444580078125, 72.0, 22.0 ],
					"text" : "s msHmnc8"
				}

			}
, 			{
				"box" : 				{
					"id" : "obj-148",
					"maxclass" : "newobj",
					"numinlets" : 1,
					"numoutlets" : 0,
					"patching_rect" : [ 1801.111132621765137, 659.4444580078125, 72.0, 22.0 ],
					"text" : "s msHmnc7"
				}

			}
, 			{
				"box" : 				{
					"id" : "obj-142",
					"maxclass" : "newobj",
					"numinlets" : 1,
					"numoutlets" : 0,
					"patching_rect" : [ 1725.555573463439941, 659.4444580078125, 72.0, 22.0 ],
					"text" : "s msHmnc6"
				}

			}
, 			{
				"box" : 				{
					"id" : "obj-141",
					"maxclass" : "newobj",
					"numinlets" : 1,
					"numoutlets" : 0,
					"patching_rect" : [ 1651.111125469207764, 659.4444580078125, 72.0, 22.0 ],
					"text" : "s msHmnc5"
				}

			}
, 			{
				"box" : 				{
					"id" : "obj-139",
					"maxclass" : "newobj",
					"numinlets" : 1,
					"numoutlets" : 0,
					"patching_rect" : [ 1575.555566310882568, 659.4444580078125, 72.0, 22.0 ],
					"text" : "s msHmnc4"
				}

			}
, 			{
				"box" : 				{
					"id" : "obj-140",
					"maxclass" : "newobj",
					"numinlets" : 1,
					"numoutlets" : 0,
					"patching_rect" : [ 1501.111118316650391, 659.4444580078125, 72.0, 22.0 ],
					"text" : "s msHmnc3"
				}

			}
, 			{
				"box" : 				{
					"id" : "obj-138",
					"maxclass" : "newobj",
					"numinlets" : 1,
					"numoutlets" : 0,
					"patching_rect" : [ 1424.444447994232178, 659.4444580078125, 72.0, 22.0 ],
					"text" : "s msHmnc2"
				}

			}
, 			{
				"box" : 				{
					"id" : "obj-134",
					"maxclass" : "newobj",
					"numinlets" : 1,
					"numoutlets" : 0,
					"patching_rect" : [ 1350.0, 659.4444580078125, 72.0, 22.0 ],
					"text" : "s msHmnc1"
				}

			}
, 			{
				"box" : 				{
					"format" : 6,
					"id" : "obj-132",
					"maxclass" : "flonum",
					"numinlets" : 1,
					"numoutlets" : 2,
					"outlettype" : [ "", "bang" ],
					"parameter_enable" : 0,
					"patching_rect" : [ 2025.555587768554688, 600.555566310882568, 50.0, 22.0 ]
				}

			}
, 			{
				"box" : 				{
					"format" : 6,
					"id" : "obj-133",
					"maxclass" : "flonum",
					"numinlets" : 1,
					"numoutlets" : 2,
					"outlettype" : [ "", "bang" ],
					"parameter_enable" : 0,
					"patching_rect" : [ 1951.11113977432251, 600.555566310882568, 50.0, 22.0 ]
				}

			}
, 			{
				"box" : 				{
					"format" : 6,
					"id" : "obj-128",
					"maxclass" : "flonum",
					"numinlets" : 1,
					"numoutlets" : 2,
					"outlettype" : [ "", "bang" ],
					"parameter_enable" : 0,
					"patching_rect" : [ 1876.666691780090332, 600.555566310882568, 50.0, 22.0 ]
				}

			}
, 			{
				"box" : 				{
					"format" : 6,
					"id" : "obj-129",
					"maxclass" : "flonum",
					"numinlets" : 1,
					"numoutlets" : 2,
					"outlettype" : [ "", "bang" ],
					"parameter_enable" : 0,
					"patching_rect" : [ 1801.111132621765137, 600.555566310882568, 50.0, 22.0 ]
				}

			}
, 			{
				"box" : 				{
					"format" : 6,
					"id" : "obj-130",
					"maxclass" : "flonum",
					"numinlets" : 1,
					"numoutlets" : 2,
					"outlettype" : [ "", "bang" ],
					"parameter_enable" : 0,
					"patching_rect" : [ 1725.555573463439941, 600.555566310882568, 50.0, 22.0 ]
				}

			}
, 			{
				"box" : 				{
					"format" : 6,
					"id" : "obj-131",
					"maxclass" : "flonum",
					"numinlets" : 1,
					"numoutlets" : 2,
					"outlettype" : [ "", "bang" ],
					"parameter_enable" : 0,
					"patching_rect" : [ 1651.111125469207764, 600.555566310882568, 50.0, 22.0 ]
				}

			}
, 			{
				"box" : 				{
					"format" : 6,
					"id" : "obj-126",
					"maxclass" : "flonum",
					"numinlets" : 1,
					"numoutlets" : 2,
					"outlettype" : [ "", "bang" ],
					"parameter_enable" : 0,
					"patching_rect" : [ 1575.555566310882568, 600.555566310882568, 50.0, 22.0 ]
				}

			}
, 			{
				"box" : 				{
					"format" : 6,
					"id" : "obj-127",
					"maxclass" : "flonum",
					"numinlets" : 1,
					"numoutlets" : 2,
					"outlettype" : [ "", "bang" ],
					"parameter_enable" : 0,
					"patching_rect" : [ 1501.111118316650391, 600.555566310882568, 50.0, 22.0 ]
				}

			}
, 			{
				"box" : 				{
					"format" : 6,
					"id" : "obj-125",
					"maxclass" : "flonum",
					"numinlets" : 1,
					"numoutlets" : 2,
					"outlettype" : [ "", "bang" ],
					"parameter_enable" : 0,
					"patching_rect" : [ 1424.444447994232178, 600.555566310882568, 50.0, 22.0 ]
				}

			}
, 			{
				"box" : 				{
					"format" : 6,
					"id" : "obj-123",
					"maxclass" : "flonum",
					"numinlets" : 1,
					"numoutlets" : 2,
					"outlettype" : [ "", "bang" ],
					"parameter_enable" : 0,
					"patching_rect" : [ 1350.0, 600.555566310882568, 50.0, 22.0 ]
				}

			}
, 			{
				"box" : 				{
					"id" : "obj-121",
					"maxclass" : "newobj",
					"numinlets" : 1,
					"numoutlets" : 10,
					"outlettype" : [ "float", "float", "float", "float", "float", "float", "float", "float", "float", "float" ],
					"patching_rect" : [ 1350.0, 540.555563449859619, 694.58902657777071, 22.0 ],
					"text" : "unpack f f f f f f f f f f"
				}

			}
, 			{
				"box" : 				{
					"id" : "obj-118",
					"maxclass" : "multislider",
					"numinlets" : 1,
					"numoutlets" : 2,
					"outlettype" : [ "", "" ],
					"parameter_enable" : 0,
					"patching_rect" : [ 1350.0, 375.0, 206.0, 135.0 ],
					"setminmax" : [ 0.0, 10.0 ],
					"size" : 10
				}

			}
, 			{
				"box" : 				{
					"id" : "obj-91",
					"maxclass" : "newobj",
					"numinlets" : 0,
					"numoutlets" : 1,
					"outlettype" : [ "" ],
					"patching_rect" : [ 1099.23596864938736, 600.555566310882568, 37.0, 22.0 ],
					"text" : "r freq"
				}

			}
, 			{
				"box" : 				{
					"id" : "obj-92",
					"maxclass" : "newobj",
					"numinlets" : 1,
					"numoutlets" : 0,
					"patching_rect" : [ 1099.23596864938736, 748.333351135253906, 74.0, 22.0 ],
					"text" : "send~ audio"
				}

			}
, 			{
				"box" : 				{
					"format" : 6,
					"id" : "obj-94",
					"maxclass" : "flonum",
					"numinlets" : 1,
					"numoutlets" : 2,
					"outlettype" : [ "", "bang" ],
					"parameter_enable" : 0,
					"patching_rect" : [ 1248.124864637851715, 748.333351135253906, 50.0, 22.0 ]
				}

			}
, 			{
				"box" : 				{
					"id" : "obj-99",
					"maxclass" : "newobj",
					"numinlets" : 3,
					"numoutlets" : 2,
					"outlettype" : [ "signal", "" ],
					"patching_rect" : [ 1099.23596864938736, 703.888904571533203, 170.111118316650391, 22.0 ],
					"text" : "additiveOscillator"
				}

			}
, 			{
				"box" : 				{
					"id" : "obj-84",
					"maxclass" : "newobj",
					"numinlets" : 0,
					"numoutlets" : 1,
					"outlettype" : [ "" ],
					"patching_rect" : [ 843.680400907993317, 600.555566310882568, 37.0, 22.0 ],
					"text" : "r freq"
				}

			}
, 			{
				"box" : 				{
					"id" : "obj-87",
					"maxclass" : "newobj",
					"numinlets" : 1,
					"numoutlets" : 0,
					"patching_rect" : [ 843.680400907993317, 748.333351135253906, 74.0, 22.0 ],
					"text" : "send~ audio"
				}

			}
, 			{
				"box" : 				{
					"format" : 6,
					"id" : "obj-89",
					"maxclass" : "flonum",
					"numinlets" : 1,
					"numoutlets" : 2,
					"outlettype" : [ "", "bang" ],
					"parameter_enable" : 0,
					"patching_rect" : [ 993.68040806055069, 748.333351135253906, 50.0, 22.0 ]
				}

			}
, 			{
				"box" : 				{
					"id" : "obj-90",
					"maxclass" : "newobj",
					"numinlets" : 3,
					"numoutlets" : 2,
					"outlettype" : [ "signal", "" ],
					"patching_rect" : [ 843.680400907993317, 703.888904571533203, 170.111118316650391, 22.0 ],
					"text" : "additiveOscillator"
				}

			}
, 			{
				"box" : 				{
					"id" : "obj-76",
					"maxclass" : "newobj",
					"numinlets" : 0,
					"numoutlets" : 1,
					"outlettype" : [ "" ],
					"patching_rect" : [ 588.124833166599274, 601.666677474975586, 37.0, 22.0 ],
					"text" : "r freq"
				}

			}
, 			{
				"box" : 				{
					"id" : "obj-79",
					"maxclass" : "newobj",
					"numinlets" : 1,
					"numoutlets" : 0,
					"patching_rect" : [ 588.124833166599274, 749.444462299346924, 74.0, 22.0 ],
					"text" : "send~ audio"
				}

			}
, 			{
				"box" : 				{
					"format" : 6,
					"id" : "obj-81",
					"maxclass" : "flonum",
					"numinlets" : 1,
					"numoutlets" : 2,
					"outlettype" : [ "", "bang" ],
					"parameter_enable" : 0,
					"patching_rect" : [ 739.235951483249664, 748.333351135253906, 50.0, 22.0 ]
				}

			}
, 			{
				"box" : 				{
					"id" : "obj-82",
					"maxclass" : "newobj",
					"numinlets" : 3,
					"numoutlets" : 2,
					"outlettype" : [ "signal", "" ],
					"patching_rect" : [ 588.124833166599274, 703.888904571533203, 170.111118316650391, 22.0 ],
					"text" : "additiveOscillator"
				}

			}
, 			{
				"box" : 				{
					"id" : "obj-71",
					"maxclass" : "newobj",
					"numinlets" : 0,
					"numoutlets" : 1,
					"outlettype" : [ "" ],
					"patching_rect" : [ 333.680376589298248, 601.666677474975586, 37.0, 22.0 ],
					"text" : "r freq"
				}

			}
, 			{
				"box" : 				{
					"id" : "obj-73",
					"maxclass" : "newobj",
					"numinlets" : 1,
					"numoutlets" : 0,
					"patching_rect" : [ 333.680376589298248, 749.444462299346924, 74.0, 22.0 ],
					"text" : "send~ audio"
				}

			}
, 			{
				"box" : 				{
					"format" : 6,
					"id" : "obj-74",
					"maxclass" : "flonum",
					"numinlets" : 1,
					"numoutlets" : 2,
					"outlettype" : [ "", "bang" ],
					"parameter_enable" : 0,
					"patching_rect" : [ 483.680383741855621, 749.444462299346924, 50.0, 22.0 ]
				}

			}
, 			{
				"box" : 				{
					"id" : "obj-75",
					"maxclass" : "newobj",
					"numinlets" : 3,
					"numoutlets" : 2,
					"outlettype" : [ "signal", "" ],
					"patching_rect" : [ 333.680376589298248, 703.888904571533203, 170.111118316650391, 22.0 ],
					"text" : "additiveOscillator"
				}

			}
, 			{
				"box" : 				{
					"id" : "obj-65",
					"maxclass" : "newobj",
					"numinlets" : 0,
					"numoutlets" : 1,
					"outlettype" : [ "" ],
					"patching_rect" : [ 77.013697683811188, 601.666677474975586, 37.0, 22.0 ],
					"text" : "r freq"
				}

			}
, 			{
				"box" : 				{
					"id" : "obj-66",
					"maxclass" : "newobj",
					"numinlets" : 1,
					"numoutlets" : 0,
					"patching_rect" : [ 77.013697683811188, 749.444462299346924, 74.0, 22.0 ],
					"text" : "send~ audio"
				}

			}
, 			{
				"box" : 				{
					"format" : 6,
					"id" : "obj-67",
					"maxclass" : "flonum",
					"numinlets" : 1,
					"numoutlets" : 2,
					"outlettype" : [ "", "bang" ],
					"parameter_enable" : 0,
					"patching_rect" : [ 228.124816000461578, 749.444462299346924, 50.0, 22.0 ]
				}

			}
, 			{
				"box" : 				{
					"id" : "obj-68",
					"maxclass" : "newobj",
					"numinlets" : 3,
					"numoutlets" : 2,
					"outlettype" : [ "signal", "" ],
					"patching_rect" : [ 77.013697683811188, 703.888904571533203, 170.111118316650391, 22.0 ],
					"text" : "additiveOscillator"
				}

			}
, 			{
				"box" : 				{
					"id" : "obj-63",
					"maxclass" : "newobj",
					"numinlets" : 0,
					"numoutlets" : 1,
					"outlettype" : [ "" ],
					"patching_rect" : [ 811.458177149295807, 825.555556297302246, 56.0, 22.0 ],
					"text" : "r velocity"
				}

			}
, 			{
				"box" : 				{
					"id" : "obj-60",
					"maxclass" : "newobj",
					"numinlets" : 1,
					"numoutlets" : 0,
					"patching_rect" : [ 542.22220641374588, 225.185179769992828, 58.0, 22.0 ],
					"text" : "s velocity"
				}

			}
, 			{
				"box" : 				{
					"id" : "obj-59",
					"maxclass" : "newobj",
					"numinlets" : 0,
					"numoutlets" : 1,
					"outlettype" : [ "" ],
					"patching_rect" : [ 1097.013746321201324, 375.0, 37.0, 22.0 ],
					"text" : "r freq"
				}

			}
, 			{
				"box" : 				{
					"id" : "obj-55",
					"maxclass" : "newobj",
					"numinlets" : 1,
					"numoutlets" : 0,
					"patching_rect" : [ 1097.013746321201324, 523.888895988464355, 74.0, 22.0 ],
					"text" : "send~ audio"
				}

			}
, 			{
				"box" : 				{
					"format" : 6,
					"id" : "obj-57",
					"maxclass" : "flonum",
					"numinlets" : 1,
					"numoutlets" : 2,
					"outlettype" : [ "", "bang" ],
					"parameter_enable" : 0,
					"patching_rect" : [ 1249.235975801944733, 526.111118316650391, 50.0, 22.0 ]
				}

			}
, 			{
				"box" : 				{
					"id" : "obj-58",
					"maxclass" : "newobj",
					"numinlets" : 3,
					"numoutlets" : 2,
					"outlettype" : [ "signal", "" ],
					"patching_rect" : [ 1097.013746321201324, 480.55556058883667, 170.111118316650391, 22.0 ],
					"text" : "additiveOscillator"
				}

			}
, 			{
				"box" : 				{
					"id" : "obj-49",
					"maxclass" : "newobj",
					"numinlets" : 0,
					"numoutlets" : 1,
					"outlettype" : [ "" ],
					"patching_rect" : [ 841.458178579807281, 375.0, 37.0, 22.0 ],
					"text" : "r freq"
				}

			}
, 			{
				"box" : 				{
					"id" : "obj-50",
					"maxclass" : "newobj",
					"numinlets" : 1,
					"numoutlets" : 0,
					"patching_rect" : [ 841.458178579807281, 523.888895988464355, 74.0, 22.0 ],
					"text" : "send~ audio"
				}

			}
, 			{
				"box" : 				{
					"format" : 6,
					"id" : "obj-51",
					"maxclass" : "flonum",
					"numinlets" : 1,
					"numoutlets" : 2,
					"outlettype" : [ "", "bang" ],
					"parameter_enable" : 0,
					"patching_rect" : [ 991.617264628410339, 523.888895988464355, 50.0, 22.0 ]
				}

			}
, 			{
				"box" : 				{
					"id" : "obj-52",
					"maxclass" : "newobj",
					"numinlets" : 3,
					"numoutlets" : 2,
					"outlettype" : [ "signal", "" ],
					"patching_rect" : [ 841.458178579807281, 480.55556058883667, 170.111118316650391, 22.0 ],
					"text" : "additiveOscillator"
				}

			}
, 			{
				"box" : 				{
					"id" : "obj-33",
					"maxclass" : "newobj",
					"numinlets" : 0,
					"numoutlets" : 1,
					"outlettype" : [ "" ],
					"patching_rect" : [ 588.124833166599274, 375.0, 37.0, 22.0 ],
					"text" : "r freq"
				}

			}
, 			{
				"box" : 				{
					"id" : "obj-34",
					"maxclass" : "newobj",
					"numinlets" : 1,
					"numoutlets" : 0,
					"patching_rect" : [ 588.124833166599274, 523.888895988464355, 74.0, 22.0 ],
					"text" : "send~ audio"
				}

			}
, 			{
				"box" : 				{
					"format" : 6,
					"id" : "obj-35",
					"maxclass" : "flonum",
					"numinlets" : 1,
					"numoutlets" : 2,
					"outlettype" : [ "", "bang" ],
					"parameter_enable" : 0,
					"patching_rect" : [ 737.013729155063629, 523.888895988464355, 50.0, 22.0 ]
				}

			}
, 			{
				"box" : 				{
					"id" : "obj-40",
					"maxclass" : "newobj",
					"numinlets" : 3,
					"numoutlets" : 2,
					"outlettype" : [ "signal", "" ],
					"patching_rect" : [ 588.124833166599274, 480.55556058883667, 170.111118316650391, 22.0 ],
					"text" : "additiveOscillator"
				}

			}
, 			{
				"box" : 				{
					"id" : "obj-32",
					"maxclass" : "newobj",
					"numinlets" : 0,
					"numoutlets" : 1,
					"outlettype" : [ "" ],
					"patching_rect" : [ 332.569265425205231, 375.0, 37.0, 22.0 ],
					"text" : "r freq"
				}

			}
, 			{
				"box" : 				{
					"id" : "obj-24",
					"maxclass" : "newobj",
					"numinlets" : 1,
					"numoutlets" : 0,
					"patching_rect" : [ 332.569265425205231, 523.888895988464355, 74.0, 22.0 ],
					"text" : "send~ audio"
				}

			}
, 			{
				"box" : 				{
					"format" : 6,
					"id" : "obj-26",
					"maxclass" : "flonum",
					"numinlets" : 1,
					"numoutlets" : 2,
					"outlettype" : [ "", "bang" ],
					"parameter_enable" : 0,
					"patching_rect" : [ 482.569272577762604, 523.888895988464355, 50.0, 22.0 ]
				}

			}
, 			{
				"box" : 				{
					"id" : "obj-27",
					"maxclass" : "newobj",
					"numinlets" : 3,
					"numoutlets" : 2,
					"outlettype" : [ "signal", "" ],
					"patching_rect" : [ 332.569265425205231, 480.55556058883667, 170.111118316650391, 22.0 ],
					"text" : "additiveOscillator"
				}

			}
, 			{
				"box" : 				{
					"id" : "obj-23",
					"maxclass" : "newobj",
					"numinlets" : 1,
					"numoutlets" : 1,
					"outlettype" : [ "signal" ],
					"patching_rect" : [ 182.569258272647858, 825.555556297302246, 106.0, 22.0 ],
					"text" : "receive~ envelope"
				}

			}
, 			{
				"box" : 				{
					"id" : "obj-21",
					"maxclass" : "newobj",
					"numinlets" : 1,
					"numoutlets" : 0,
					"patching_rect" : [ 811.458177149295807, 1214.444463729858398, 94.0, 22.0 ],
					"text" : "send~ envelope"
				}

			}
, 			{
				"box" : 				{
					"id" : "obj-18",
					"maxclass" : "newobj",
					"numinlets" : 1,
					"numoutlets" : 1,
					"outlettype" : [ "signal" ],
					"patching_rect" : [ 75.90258651971817, 825.555556297302246, 87.0, 22.0 ],
					"text" : "receive~ audio"
				}

			}
, 			{
				"box" : 				{
					"id" : "obj-15",
					"maxclass" : "newobj",
					"numinlets" : 1,
					"numoutlets" : 0,
					"patching_rect" : [ 77.013697683811188, 526.111118316650391, 74.0, 22.0 ],
					"text" : "send~ audio"
				}

			}
, 			{
				"box" : 				{
					"format" : 6,
					"id" : "obj-14",
					"maxclass" : "flonum",
					"numinlets" : 1,
					"numoutlets" : 2,
					"outlettype" : [ "", "bang" ],
					"parameter_enable" : 0,
					"patching_rect" : [ 228.124816000461578, 523.888895988464355, 50.0, 22.0 ]
				}

			}
, 			{
				"box" : 				{
					"id" : "obj-8",
					"maxclass" : "newobj",
					"numinlets" : 0,
					"numoutlets" : 1,
					"outlettype" : [ "" ],
					"patching_rect" : [ 77.013697683811188, 375.0, 37.0, 22.0 ],
					"text" : "r freq"
				}

			}
, 			{
				"box" : 				{
					"id" : "obj-3",
					"maxclass" : "newobj",
					"numinlets" : 1,
					"numoutlets" : 0,
					"patching_rect" : [ 225.185179769992828, 314.814806461334229, 39.0, 22.0 ],
					"text" : "s freq"
				}

			}
, 			{
				"box" : 				{
					"id" : "obj-38",
					"maxclass" : "newobj",
					"numinlets" : 3,
					"numoutlets" : 2,
					"outlettype" : [ "signal", "" ],
					"patching_rect" : [ 77.013697683811188, 480.55556058883667, 170.111118316650391, 22.0 ],
					"text" : "additiveOscillator"
				}

			}
, 			{
				"box" : 				{
					"id" : "obj-30",
					"maxclass" : "number",
					"numinlets" : 1,
					"numoutlets" : 2,
					"outlettype" : [ "", "bang" ],
					"parameter_enable" : 0,
					"patching_rect" : [ 542.22220641374588, 165.185181736946106, 50.0, 22.0 ]
				}

			}
, 			{
				"box" : 				{
					"id" : "obj-11",
					"maxclass" : "number",
					"numinlets" : 1,
					"numoutlets" : 2,
					"outlettype" : [ "", "bang" ],
					"parameter_enable" : 0,
					"patching_rect" : [ 225.185179769992828, 165.185181736946106, 50.0, 22.0 ]
				}

			}
, 			{
				"box" : 				{
					"id" : "obj-5",
					"maxclass" : "kslider",
					"mode" : 2,
					"numinlets" : 2,
					"numoutlets" : 2,
					"outlettype" : [ "int", "int" ],
					"parameter_enable" : 0,
					"patching_rect" : [ 225.185179769992828, 74.814814329147339, 336.0, 53.0 ]
				}

			}
, 			{
				"box" : 				{
					"id" : "obj-1",
					"maxclass" : "newobj",
					"numinlets" : 1,
					"numoutlets" : 1,
					"outlettype" : [ "" ],
					"patching_rect" : [ 74.814814329147339, 74.814814329147339, 70.0, 22.0 ],
					"text" : "loadmess 0"
				}

			}
, 			{
				"box" : 				{
					"bufsize" : 256,
					"id" : "obj-47",
					"maxclass" : "scope~",
					"numinlets" : 2,
					"numoutlets" : 0,
					"patching_rect" : [ 301.458152830600739, 1007.777787208557129, 150.0, 150.0 ]
				}

			}
, 			{
				"box" : 				{
					"id" : "obj-17",
					"maxclass" : "newobj",
					"numinlets" : 2,
					"numoutlets" : 1,
					"outlettype" : [ "int" ],
					"patching_rect" : [ 74.814814329147339, 135.555553078651428, 29.5, 22.0 ],
					"text" : "+ 1"
				}

			}
, 			{
				"box" : 				{
					"id" : "obj-6",
					"items" : [ "Sin", ",", "Saw", ",", "Square", ",", "Tri" ],
					"maxclass" : "umenu",
					"numinlets" : 1,
					"numoutlets" : 3,
					"outlettype" : [ "int", "", "" ],
					"parameter_enable" : 0,
					"patching_rect" : [ 74.814814329147339, 105.185183703899384, 100.0, 22.0 ]
				}

			}
, 			{
				"box" : 				{
					"id" : "obj-112",
					"maxclass" : "comment",
					"numinlets" : 1,
					"numoutlets" : 0,
					"patching_rect" : [ 285.185177803039551, 269.629622757434845, 180.0, 20.0 ],
					"text" : "Frequency of the fundamental"
				}

			}
, 			{
				"box" : 				{
					"id" : "obj-108",
					"maxclass" : "preset",
					"numinlets" : 1,
					"numoutlets" : 5,
					"outlettype" : [ "preset", "int", "preset", "int", "" ],
					"patching_rect" : [ 74.074073612689972, 165.185181736946106, 100.0, 40.0 ],
					"preset_data" : [ 						{
							"number" : 1,
							"data" : [ 5, "<invalid>", "flonum", "float", 0.0, 5, "obj-9", "flonum", "float", 1.0, 5, "<invalid>", "flonum", "float", 0.0, 5, "obj-16", "flonum", "float", 1.0, 5, "obj-28", "flonum", "float", 2.0, 5, "<invalid>", "flonum", "float", 0.0, 5, "obj-22", "flonum", "float", 0.0, 5, "obj-36", "flonum", "float", 3.0, 5, "<invalid>", "flonum", "float", 0.0, 5, "obj-31", "flonum", "float", 0.0, 5, "obj-45", "flonum", "float", 4.0, 5, "<invalid>", "flonum", "float", 0.0, 5, "obj-39", "flonum", "float", 0.0, 5, "obj-53", "flonum", "float", 5.0, 5, "<invalid>", "flonum", "float", 0.0, 5, "obj-48", "flonum", "float", 0.0, 5, "obj-93", "flonum", "float", 6.0, 5, "<invalid>", "flonum", "float", 0.0, 5, "obj-88", "flonum", "float", 0.0, 5, "obj-85", "flonum", "float", 7.0, 5, "<invalid>", "flonum", "float", 0.0, 5, "obj-80", "flonum", "float", 0.0, 5, "obj-77", "flonum", "float", 8.0, 5, "<invalid>", "flonum", "float", 0.0, 5, "obj-72", "flonum", "float", 0.0, 5, "obj-69", "flonum", "float", 9.0, 5, "<invalid>", "flonum", "float", 0.0, 5, "obj-64", "flonum", "float", 0.0, 5, "obj-61", "flonum", "float", 10.0, 5, "<invalid>", "flonum", "float", 0.0, 5, "obj-56", "flonum", "float", 0.0, 5, "<invalid>", "flonum", "float", 0.5, 5, "<invalid>", "flonum", "float", 0.75, 5, "obj-6", "umenu", "int", 0 ]
						}
, 						{
							"number" : 2,
							"data" : [ 5, "<invalid>", "flonum", "float", 0.0, 5, "obj-9", "flonum", "float", 1.0, 5, "<invalid>", "flonum", "float", 0.0, 5, "obj-16", "flonum", "float", 1.0, 5, "obj-28", "flonum", "float", 2.0, 5, "<invalid>", "flonum", "float", 0.0, 5, "obj-22", "flonum", "float", 0.5, 5, "obj-36", "flonum", "float", 3.0, 5, "<invalid>", "flonum", "float", 0.0, 5, "obj-31", "flonum", "float", 0.333000004291534, 5, "obj-45", "flonum", "float", 4.0, 5, "<invalid>", "flonum", "float", 0.0, 5, "obj-39", "flonum", "float", 0.25, 5, "obj-53", "flonum", "float", 5.0, 5, "<invalid>", "flonum", "float", 0.0, 5, "obj-48", "flonum", "float", 0.200000002980232, 5, "obj-93", "flonum", "float", 6.0, 5, "<invalid>", "flonum", "float", 0.0, 5, "obj-88", "flonum", "float", 0.165999993681908, 5, "obj-85", "flonum", "float", 7.0, 5, "<invalid>", "flonum", "float", 0.0, 5, "obj-80", "flonum", "float", 0.143999993801117, 5, "obj-77", "flonum", "float", 8.0, 5, "<invalid>", "flonum", "float", 0.0, 5, "obj-72", "flonum", "float", 0.125, 5, "obj-69", "flonum", "float", 9.0, 5, "<invalid>", "flonum", "float", 0.0, 5, "obj-64", "flonum", "float", 0.111000001430511, 5, "obj-61", "flonum", "float", 10.0, 5, "<invalid>", "flonum", "float", 0.0, 5, "obj-56", "flonum", "float", 0.100000001490116, 5, "<invalid>", "flonum", "float", 0.5, 5, "<invalid>", "flonum", "float", 0.75, 5, "obj-6", "umenu", "int", 1 ]
						}
, 						{
							"number" : 3,
							"data" : [ 5, "<invalid>", "flonum", "float", 0.0, 5, "obj-9", "flonum", "float", 1.0, 5, "<invalid>", "flonum", "float", 0.0, 5, "obj-16", "flonum", "float", 1.0, 5, "obj-28", "flonum", "float", 2.0, 5, "<invalid>", "flonum", "float", 0.0, 5, "obj-22", "flonum", "float", 0.0, 5, "obj-36", "flonum", "float", 3.0, 5, "<invalid>", "flonum", "float", 0.0, 5, "obj-31", "flonum", "float", 0.333000004291534, 5, "obj-45", "flonum", "float", 4.0, 5, "<invalid>", "flonum", "float", 0.0, 5, "obj-39", "flonum", "float", 0.0, 5, "obj-53", "flonum", "float", 5.0, 5, "<invalid>", "flonum", "float", 0.0, 5, "obj-48", "flonum", "float", 0.200000002980232, 5, "obj-93", "flonum", "float", 6.0, 5, "<invalid>", "flonum", "float", 0.0, 5, "obj-88", "flonum", "float", 0.0, 5, "obj-85", "flonum", "float", 7.0, 5, "<invalid>", "flonum", "float", 0.0, 5, "obj-80", "flonum", "float", 0.143999993801117, 5, "obj-77", "flonum", "float", 8.0, 5, "<invalid>", "flonum", "float", 0.0, 5, "obj-72", "flonum", "float", 0.0, 5, "obj-69", "flonum", "float", 9.0, 5, "<invalid>", "flonum", "float", 0.0, 5, "obj-64", "flonum", "float", 0.111000001430511, 5, "obj-61", "flonum", "float", 10.0, 5, "<invalid>", "flonum", "float", 0.0, 5, "obj-56", "flonum", "float", 0.0, 5, "<invalid>", "flonum", "float", 0.5, 5, "<invalid>", "flonum", "float", 0.75, 5, "obj-6", "umenu", "int", 2 ]
						}
, 						{
							"number" : 4,
							"data" : [ 5, "<invalid>", "flonum", "float", 0.0, 5, "obj-9", "flonum", "float", 1.0, 5, "<invalid>", "flonum", "float", 0.0, 5, "obj-16", "flonum", "float", 1.0, 5, "obj-28", "flonum", "float", 2.0, 5, "<invalid>", "flonum", "float", 0.0, 5, "obj-22", "flonum", "float", 0.0, 5, "obj-36", "flonum", "float", 3.0, 5, "<invalid>", "flonum", "float", 0.0, 5, "obj-31", "flonum", "float", 0.111000001430511, 5, "obj-45", "flonum", "float", 4.0, 5, "<invalid>", "flonum", "float", 0.0, 5, "obj-39", "flonum", "float", 0.0, 5, "obj-53", "flonum", "float", 5.0, 5, "<invalid>", "flonum", "float", 0.0, 5, "obj-48", "flonum", "float", 0.03999999910593, 5, "obj-93", "flonum", "float", 6.0, 5, "<invalid>", "flonum", "float", 0.0, 5, "obj-88", "flonum", "float", 0.0, 5, "obj-85", "flonum", "float", 7.0, 5, "<invalid>", "flonum", "float", 0.0, 5, "obj-80", "flonum", "float", 0.019999999552965, 5, "obj-77", "flonum", "float", 8.0, 5, "<invalid>", "flonum", "float", 0.0, 5, "obj-72", "flonum", "float", 0.0, 5, "obj-69", "flonum", "float", 9.0, 5, "<invalid>", "flonum", "float", 0.0, 5, "obj-64", "flonum", "float", 0.009999999776483, 5, "obj-61", "flonum", "float", 10.0, 5, "<invalid>", "flonum", "float", 0.0, 5, "obj-56", "flonum", "float", 0.0, 5, "<invalid>", "flonum", "float", 0.5, 5, "<invalid>", "flonum", "float", 0.75, 5, "obj-6", "umenu", "int", 3 ]
						}
, 						{
							"number" : 5,
							"data" : [ 5, "<invalid>", "flonum", "float", 0.0, 5, "obj-9", "flonum", "float", 1.0, 5, "<invalid>", "flonum", "float", 0.0, 5, "obj-16", "flonum", "float", 0.389999985694885, 5, "obj-28", "flonum", "float", 2.0, 5, "<invalid>", "flonum", "float", 0.0, 5, "obj-22", "flonum", "float", 0.25, 5, "obj-36", "flonum", "float", 3.0, 5, "<invalid>", "flonum", "float", 0.0, 5, "obj-31", "flonum", "float", 0.330000013113022, 5, "obj-45", "flonum", "float", 4.0, 5, "<invalid>", "flonum", "float", 0.0, 5, "obj-39", "flonum", "float", 0.389999985694885, 5, "obj-53", "flonum", "float", 5.0, 5, "<invalid>", "flonum", "float", 0.0, 5, "obj-48", "flonum", "float", 0.699999988079071, 5, "obj-93", "flonum", "float", 6.0, 5, "<invalid>", "flonum", "float", 0.0, 5, "obj-88", "flonum", "float", 0.379999995231628, 5, "obj-85", "flonum", "float", 7.0, 5, "<invalid>", "flonum", "float", 0.0, 5, "obj-80", "flonum", "float", 0.230000004172325, 5, "obj-77", "flonum", "float", 8.0, 5, "<invalid>", "flonum", "float", 0.0, 5, "obj-72", "flonum", "float", 0.079999998211861, 5, "obj-69", "flonum", "float", 9.0, 5, "<invalid>", "flonum", "float", 0.0, 5, "obj-64", "flonum", "float", 0.0, 5, "obj-61", "flonum", "float", 10.0, 5, "<invalid>", "flonum", "float", 0.0, 5, "obj-56", "flonum", "float", 0.0, 5, "<invalid>", "flonum", "float", 0.5, 5, "<invalid>", "flonum", "float", 0.75, 5, "obj-6", "umenu", "int", 1 ]
						}
, 						{
							"number" : 6,
							"data" : [ 5, "<invalid>", "flonum", "float", 0.0, 5, "obj-9", "flonum", "float", 1.0, 5, "<invalid>", "flonum", "float", 0.0, 5, "obj-16", "flonum", "float", 0.409999996423721, 5, "obj-28", "flonum", "float", 2.0, 5, "<invalid>", "flonum", "float", 0.0, 5, "obj-22", "flonum", "float", 0.0, 5, "obj-36", "flonum", "float", 3.0, 5, "<invalid>", "flonum", "float", 0.0, 5, "obj-31", "flonum", "float", 0.200000002980232, 5, "obj-45", "flonum", "float", 4.0, 5, "<invalid>", "flonum", "float", 0.0, 5, "obj-39", "flonum", "float", 0.0, 5, "obj-53", "flonum", "float", 5.0, 5, "<invalid>", "flonum", "float", 0.0, 5, "obj-48", "flonum", "float", 0.300000011920929, 5, "obj-93", "flonum", "float", 6.0, 5, "<invalid>", "flonum", "float", 0.0, 5, "obj-88", "flonum", "float", 0.0, 5, "obj-85", "flonum", "float", 7.0, 5, "<invalid>", "flonum", "float", 0.0, 5, "obj-80", "flonum", "float", 0.349999994039536, 5, "obj-77", "flonum", "float", 8.0, 5, "<invalid>", "flonum", "float", 0.0, 5, "obj-72", "flonum", "float", 0.0, 5, "obj-69", "flonum", "float", 9.0, 5, "<invalid>", "flonum", "float", 0.0, 5, "obj-64", "flonum", "float", 0.0, 5, "obj-61", "flonum", "float", 10.0, 5, "<invalid>", "flonum", "float", 0.0, 5, "obj-56", "flonum", "float", 0.0, 5, "<invalid>", "flonum", "float", 0.5, 5, "<invalid>", "flonum", "float", 0.75, 5, "obj-6", "umenu", "int", 1 ]
						}
, 						{
							"number" : 7,
							"data" : [ 5, "<invalid>", "flonum", "float", 0.0, 5, "obj-9", "flonum", "float", 1.0, 5, "<invalid>", "flonum", "float", 0.0, 5, "obj-16", "flonum", "float", 0.079999998211861, 5, "obj-28", "flonum", "float", 2.0, 5, "<invalid>", "flonum", "float", 0.0, 5, "obj-22", "flonum", "float", 0.899999976158142, 5, "obj-36", "flonum", "float", 3.0, 5, "<invalid>", "flonum", "float", 0.0, 5, "obj-31", "flonum", "float", 0.25, 5, "obj-45", "flonum", "float", 4.0, 5, "<invalid>", "flonum", "float", 0.0, 5, "obj-39", "flonum", "float", 0.170000001788139, 5, "obj-53", "flonum", "float", 5.0, 5, "<invalid>", "flonum", "float", 0.0, 5, "obj-48", "flonum", "float", 0.100000001490116, 5, "obj-93", "flonum", "float", 6.0, 5, "<invalid>", "flonum", "float", 0.0, 5, "obj-88", "flonum", "float", 0.5, 5, "obj-85", "flonum", "float", 7.0, 5, "<invalid>", "flonum", "float", 0.0, 5, "obj-80", "flonum", "float", 0.079999998211861, 5, "obj-77", "flonum", "float", 8.0, 5, "<invalid>", "flonum", "float", 0.0, 5, "obj-72", "flonum", "float", 0.070000000298023, 5, "obj-69", "flonum", "float", 9.0, 5, "<invalid>", "flonum", "float", 0.0, 5, "obj-64", "flonum", "float", 0.0, 5, "obj-61", "flonum", "float", 10.0, 5, "<invalid>", "flonum", "float", 0.0, 5, "obj-56", "flonum", "float", 0.0, 5, "<invalid>", "flonum", "float", 0.5, 5, "<invalid>", "flonum", "float", 0.75, 5, "obj-6", "umenu", "int", 1 ]
						}
, 						{
							"number" : 8,
							"data" : [ 5, "<invalid>", "flonum", "float", 0.0, 5, "obj-9", "flonum", "float", 1.0, 5, "<invalid>", "flonum", "float", 0.0, 5, "obj-16", "flonum", "float", 0.839999973773956, 5, "obj-28", "flonum", "float", 2.0, 5, "<invalid>", "flonum", "float", 0.0, 5, "obj-22", "flonum", "float", 0.319999992847443, 5, "obj-36", "flonum", "float", 3.0, 5, "<invalid>", "flonum", "float", 0.0, 5, "obj-31", "flonum", "float", 0.159999996423721, 5, "obj-45", "flonum", "float", 4.0, 5, "<invalid>", "flonum", "float", 0.0, 5, "obj-39", "flonum", "float", 0.035999998450279, 5, "obj-53", "flonum", "float", 5.0, 5, "<invalid>", "flonum", "float", 0.0, 5, "obj-48", "flonum", "float", 0.056000001728535, 5, "obj-93", "flonum", "float", 6.0, 5, "<invalid>", "flonum", "float", 0.0, 5, "obj-88", "flonum", "float", 0.400000005960464, 5, "obj-85", "flonum", "float", 7.0, 5, "<invalid>", "flonum", "float", 0.0, 5, "obj-80", "flonum", "float", 0.439999997615814, 5, "obj-77", "flonum", "float", 8.0, 5, "<invalid>", "flonum", "float", 0.0, 5, "obj-72", "flonum", "float", 0.002400000113994, 5, "obj-69", "flonum", "float", 9.0, 5, "<invalid>", "flonum", "float", 0.0, 5, "obj-64", "flonum", "float", 0.0, 5, "obj-61", "flonum", "float", 10.0, 5, "<invalid>", "flonum", "float", 0.0, 5, "obj-56", "flonum", "float", 0.0, 5, "<invalid>", "flonum", "float", 0.5, 5, "<invalid>", "flonum", "float", 0.75, 5, "obj-6", "umenu", "int", 1 ]
						}
, 						{
							"number" : 9,
							"data" : [ 5, "<invalid>", "flonum", "float", 0.0, 5, "obj-9", "flonum", "float", 1.0, 5, "<invalid>", "flonum", "float", 0.0, 5, "obj-16", "flonum", "float", 1.0, 5, "obj-28", "flonum", "float", 2.0, 5, "<invalid>", "flonum", "float", 0.0, 5, "obj-22", "flonum", "float", 0.340000003576279, 5, "obj-36", "flonum", "float", 3.0, 5, "<invalid>", "flonum", "float", 0.0, 5, "obj-31", "flonum", "float", 0.321000009775162, 5, "obj-45", "flonum", "float", 4.0, 5, "<invalid>", "flonum", "float", 0.0, 5, "obj-39", "flonum", "float", 1.0, 5, "obj-53", "flonum", "float", 5.0, 5, "<invalid>", "flonum", "float", 0.0, 5, "obj-48", "flonum", "float", 0.709999978542328, 5, "obj-93", "flonum", "float", 6.0, 5, "<invalid>", "flonum", "float", 0.0, 5, "obj-88", "flonum", "float", 0.25, 5, "obj-85", "flonum", "float", 7.0, 5, "<invalid>", "flonum", "float", 0.0, 5, "obj-80", "flonum", "float", 0.430000007152557, 5, "obj-77", "flonum", "float", 8.0, 5, "<invalid>", "flonum", "float", 0.0, 5, "obj-72", "flonum", "float", 1.0, 5, "obj-69", "flonum", "float", 9.0, 5, "<invalid>", "flonum", "float", 0.0, 5, "obj-64", "flonum", "float", 0.111000001430511, 5, "obj-61", "flonum", "float", 10.0, 5, "<invalid>", "flonum", "float", 0.0, 5, "obj-56", "flonum", "float", 0.043000001460314, 5, "<invalid>", "flonum", "float", 0.5, 5, "<invalid>", "flonum", "float", 0.75, 5, "obj-6", "umenu", "int", 2 ]
						}
, 						{
							"number" : 17,
							"data" : [ 5, "<invalid>", "flonum", "float", 0.0, 5, "obj-9", "flonum", "float", 1.0, 5, "<invalid>", "flonum", "float", 0.0, 5, "obj-16", "flonum", "float", 0.0, 5, "obj-28", "flonum", "float", 2.0, 5, "<invalid>", "flonum", "float", 0.0, 5, "obj-22", "flonum", "float", 0.0, 5, "obj-36", "flonum", "float", 3.0, 5, "<invalid>", "flonum", "float", 0.0, 5, "obj-31", "flonum", "float", 0.333000004291534, 5, "obj-45", "flonum", "float", 4.0, 5, "<invalid>", "flonum", "float", 0.0, 5, "obj-39", "flonum", "float", 0.25, 5, "obj-53", "flonum", "float", 5.0, 5, "<invalid>", "flonum", "float", 0.0, 5, "obj-48", "flonum", "float", 0.200000002980232, 5, "obj-93", "flonum", "float", 6.0, 5, "<invalid>", "flonum", "float", 0.0, 5, "obj-88", "flonum", "float", 0.165999993681908, 5, "obj-85", "flonum", "float", 7.0, 5, "<invalid>", "flonum", "float", 0.0, 5, "obj-80", "flonum", "float", 0.143999993801117, 5, "obj-77", "flonum", "float", 8.0, 5, "<invalid>", "flonum", "float", 0.0, 5, "obj-72", "flonum", "float", 0.125, 5, "obj-69", "flonum", "float", 9.0, 5, "<invalid>", "flonum", "float", 0.0, 5, "obj-64", "flonum", "float", 0.111000001430511, 5, "obj-61", "flonum", "float", 10.0, 5, "<invalid>", "flonum", "float", 0.0, 5, "obj-56", "flonum", "float", 0.100000001490116, 5, "<invalid>", "flonum", "float", 0.5, 5, "<invalid>", "flonum", "float", 0.75, 5, "obj-6", "umenu", "int", 2 ]
						}
, 						{
							"number" : 18,
							"data" : [ 5, "<invalid>", "flonum", "float", 0.0, 5, "obj-9", "flonum", "float", 1.0, 5, "<invalid>", "flonum", "float", 0.0, 5, "obj-16", "flonum", "float", 0.0, 5, "obj-28", "flonum", "float", 2.0, 5, "<invalid>", "flonum", "float", 0.0, 5, "obj-22", "flonum", "float", 0.0, 5, "obj-36", "flonum", "float", 3.0, 5, "<invalid>", "flonum", "float", 0.0, 5, "obj-31", "flonum", "float", 0.0, 5, "obj-45", "flonum", "float", 4.0, 5, "<invalid>", "flonum", "float", 0.0, 5, "obj-39", "flonum", "float", 0.0, 5, "obj-53", "flonum", "float", 5.0, 5, "<invalid>", "flonum", "float", 0.0, 5, "obj-48", "flonum", "float", 0.200000002980232, 5, "obj-93", "flonum", "float", 6.0, 5, "<invalid>", "flonum", "float", 0.0, 5, "obj-88", "flonum", "float", 0.165999993681908, 5, "obj-85", "flonum", "float", 7.0, 5, "<invalid>", "flonum", "float", 0.0, 5, "obj-80", "flonum", "float", 0.143999993801117, 5, "obj-77", "flonum", "float", 8.0, 5, "<invalid>", "flonum", "float", 0.0, 5, "obj-72", "flonum", "float", 0.125, 5, "obj-69", "flonum", "float", 9.0, 5, "<invalid>", "flonum", "float", 0.0, 5, "obj-64", "flonum", "float", 0.111000001430511, 5, "obj-61", "flonum", "float", 10.0, 5, "<invalid>", "flonum", "float", 0.0, 5, "obj-56", "flonum", "float", 0.100000001490116, 5, "<invalid>", "flonum", "float", 0.5, 5, "<invalid>", "flonum", "float", 0.75, 5, "obj-6", "umenu", "int", 2 ]
						}
 ]
				}

			}
, 			{
				"box" : 				{
					"id" : "obj-105",
					"maxclass" : "newobj",
					"numinlets" : 2,
					"numoutlets" : 1,
					"outlettype" : [ "signal" ],
					"patching_rect" : [ 75.90258651971817, 946.666673183441162, 40.0, 22.0 ],
					"text" : "*~ 0.5"
				}

			}
, 			{
				"box" : 				{
					"id" : "obj-104",
					"maxclass" : "newobj",
					"numinlets" : 2,
					"numoutlets" : 1,
					"outlettype" : [ "signal" ],
					"patching_rect" : [ 75.90258651971817, 885.555559158325195, 29.5, 22.0 ],
					"text" : "*~"
				}

			}
, 			{
				"box" : 				{
					"id" : "obj-103",
					"maxclass" : "newobj",
					"numinlets" : 2,
					"numoutlets" : 2,
					"outlettype" : [ "signal", "bang" ],
					"patching_rect" : [ 811.458177149295807, 1153.333349704742432, 34.0, 22.0 ],
					"text" : "line~"
				}

			}
, 			{
				"box" : 				{
					"id" : "obj-102",
					"maxclass" : "message",
					"numinlets" : 2,
					"numoutlets" : 1,
					"outlettype" : [ "" ],
					"patching_rect" : [ 943.680405676364899, 1093.333346843719482, 39.0, 22.0 ],
					"text" : "0 100"
				}

			}
, 			{
				"box" : 				{
					"id" : "obj-137",
					"maxclass" : "message",
					"numinlets" : 2,
					"numoutlets" : 1,
					"outlettype" : [ "" ],
					"patching_rect" : [ 811.458177149295807, 1093.333346843719482, 134.0, 22.0 ],
					"text" : "0, $1 50 $2 200 $2 700"
				}

			}
, 			{
				"box" : 				{
					"id" : "obj-97",
					"maxclass" : "newobj",
					"numinlets" : 2,
					"numoutlets" : 1,
					"outlettype" : [ "float" ],
					"patching_rect" : [ 850.347067892551422, 973.333341121673584, 33.0, 22.0 ],
					"text" : "* 0.5"
				}

			}
, 			{
				"box" : 				{
					"id" : "obj-96",
					"maxclass" : "newobj",
					"numinlets" : 2,
					"numoutlets" : 1,
					"outlettype" : [ "" ],
					"patching_rect" : [ 811.458177149295807, 1032.222232818603516, 61.0, 22.0 ],
					"text" : "pack 0. 0."
				}

			}
, 			{
				"box" : 				{
					"id" : "obj-95",
					"maxclass" : "newobj",
					"numinlets" : 6,
					"numoutlets" : 1,
					"outlettype" : [ "" ],
					"patching_rect" : [ 811.458177149295807, 943.333339691162109, 97.0, 22.0 ],
					"text" : "scale 0 127 0. 1."
				}

			}
, 			{
				"box" : 				{
					"bgcolor" : [ 0.0, 0.003921568627451, 0.545098039215686, 1.0 ],
					"format" : 6,
					"id" : "obj-56",
					"maxclass" : "flonum",
					"numinlets" : 1,
					"numoutlets" : 2,
					"outlettype" : [ "", "bang" ],
					"parameter_enable" : 0,
					"patching_rect" : [ 1248.124864637851715, 643.888901710510254, 50.0, 22.0 ]
				}

			}
, 			{
				"box" : 				{
					"format" : 6,
					"id" : "obj-61",
					"maxclass" : "flonum",
					"numinlets" : 1,
					"numoutlets" : 2,
					"outlettype" : [ "", "bang" ],
					"parameter_enable" : 0,
					"patching_rect" : [ 1173.680416643619537, 643.888901710510254, 50.0, 22.0 ]
				}

			}
, 			{
				"box" : 				{
					"bgcolor" : [ 0.0, 0.003921568627451, 0.545098039215686, 1.0 ],
					"format" : 6,
					"id" : "obj-64",
					"maxclass" : "flonum",
					"numinlets" : 1,
					"numoutlets" : 2,
					"outlettype" : [ "", "bang" ],
					"parameter_enable" : 0,
					"patching_rect" : [ 993.68040806055069, 643.888901710510254, 50.0, 22.0 ]
				}

			}
, 			{
				"box" : 				{
					"format" : 6,
					"id" : "obj-69",
					"maxclass" : "flonum",
					"numinlets" : 1,
					"numoutlets" : 2,
					"outlettype" : [ "", "bang" ],
					"parameter_enable" : 0,
					"patching_rect" : [ 919.235960066318512, 643.888901710510254, 50.0, 22.0 ]
				}

			}
, 			{
				"box" : 				{
					"bgcolor" : [ 0.0, 0.003921568627451, 0.545098039215686, 1.0 ],
					"format" : 6,
					"id" : "obj-72",
					"maxclass" : "flonum",
					"numinlets" : 1,
					"numoutlets" : 2,
					"outlettype" : [ "", "bang" ],
					"parameter_enable" : 0,
					"patching_rect" : [ 737.013729155063629, 643.888901710510254, 50.0, 22.0 ]
				}

			}
, 			{
				"box" : 				{
					"format" : 6,
					"id" : "obj-77",
					"maxclass" : "flonum",
					"numinlets" : 1,
					"numoutlets" : 2,
					"outlettype" : [ "", "bang" ],
					"parameter_enable" : 0,
					"patching_rect" : [ 663.680392324924469, 643.888901710510254, 50.0, 22.0 ]
				}

			}
, 			{
				"box" : 				{
					"bgcolor" : [ 0.0, 0.003921568627451, 0.545098039215686, 1.0 ],
					"format" : 6,
					"id" : "obj-80",
					"maxclass" : "flonum",
					"numinlets" : 1,
					"numoutlets" : 2,
					"outlettype" : [ "", "bang" ],
					"parameter_enable" : 0,
					"patching_rect" : [ 483.680383741855621, 643.888901710510254, 50.0, 22.0 ]
				}

			}
, 			{
				"box" : 				{
					"format" : 6,
					"id" : "obj-85",
					"maxclass" : "flonum",
					"numinlets" : 1,
					"numoutlets" : 2,
					"outlettype" : [ "", "bang" ],
					"parameter_enable" : 0,
					"patching_rect" : [ 409.235935747623444, 643.888901710510254, 50.0, 22.0 ]
				}

			}
, 			{
				"box" : 				{
					"bgcolor" : [ 0.0, 0.003921568627451, 0.545098039215686, 1.0 ],
					"format" : 6,
					"id" : "obj-88",
					"maxclass" : "flonum",
					"numinlets" : 1,
					"numoutlets" : 2,
					"outlettype" : [ "", "bang" ],
					"parameter_enable" : 0,
					"patching_rect" : [ 228.124816000461578, 643.888901710510254, 50.0, 22.0 ]
				}

			}
, 			{
				"box" : 				{
					"format" : 6,
					"id" : "obj-93",
					"maxclass" : "flonum",
					"numinlets" : 1,
					"numoutlets" : 2,
					"outlettype" : [ "", "bang" ],
					"parameter_enable" : 0,
					"patching_rect" : [ 152.569256842136383, 643.888901710510254, 50.0, 22.0 ]
				}

			}
, 			{
				"box" : 				{
					"bgcolor" : [ 0.0, 0.003921568627451, 0.545098039215686, 1.0 ],
					"format" : 6,
					"id" : "obj-48",
					"maxclass" : "flonum",
					"numinlets" : 1,
					"numoutlets" : 2,
					"outlettype" : [ "", "bang" ],
					"parameter_enable" : 0,
					"patching_rect" : [ 1249.235975801944733, 419.444446563720703, 50.0, 22.0 ]
				}

			}
, 			{
				"box" : 				{
					"format" : 6,
					"id" : "obj-53",
					"maxclass" : "flonum",
					"numinlets" : 1,
					"numoutlets" : 2,
					"outlettype" : [ "", "bang" ],
					"parameter_enable" : 0,
					"patching_rect" : [ 1172.56930547952652, 419.444446563720703, 50.0, 22.0 ]
				}

			}
, 			{
				"box" : 				{
					"bgcolor" : [ 0.0, 0.003921568627451, 0.545098039215686, 1.0 ],
					"format" : 6,
					"id" : "obj-39",
					"maxclass" : "flonum",
					"numinlets" : 1,
					"numoutlets" : 2,
					"outlettype" : [ "", "bang" ],
					"parameter_enable" : 0,
					"patching_rect" : [ 992.569296896457672, 420.555557727813721, 50.0, 22.0 ]
				}

			}
, 			{
				"box" : 				{
					"format" : 6,
					"id" : "obj-45",
					"maxclass" : "flonum",
					"numinlets" : 1,
					"numoutlets" : 2,
					"outlettype" : [ "", "bang" ],
					"parameter_enable" : 0,
					"patching_rect" : [ 917.013737738132477, 421.666668891906738, 50.0, 22.0 ]
				}

			}
, 			{
				"box" : 				{
					"bgcolor" : [ 0.0, 0.003921568627451, 0.545098039215686, 1.0 ],
					"format" : 6,
					"id" : "obj-31",
					"maxclass" : "flonum",
					"numinlets" : 1,
					"numoutlets" : 2,
					"outlettype" : [ "", "bang" ],
					"parameter_enable" : 0,
					"patching_rect" : [ 737.013729155063629, 419.444446563720703, 50.0, 22.0 ]
				}

			}
, 			{
				"box" : 				{
					"format" : 6,
					"id" : "obj-36",
					"maxclass" : "flonum",
					"numinlets" : 1,
					"numoutlets" : 2,
					"outlettype" : [ "", "bang" ],
					"parameter_enable" : 0,
					"patching_rect" : [ 662.569281160831451, 419.444446563720703, 50.0, 22.0 ]
				}

			}
, 			{
				"box" : 				{
					"bgcolor" : [ 0.0, 0.003921568627451, 0.545098039215686, 1.0 ],
					"format" : 6,
					"id" : "obj-22",
					"maxclass" : "flonum",
					"numinlets" : 1,
					"numoutlets" : 2,
					"outlettype" : [ "", "bang" ],
					"parameter_enable" : 0,
					"patching_rect" : [ 483.680383741855621, 419.444446563720703, 50.0, 22.0 ]
				}

			}
, 			{
				"box" : 				{
					"format" : 6,
					"id" : "obj-28",
					"maxclass" : "flonum",
					"numinlets" : 1,
					"numoutlets" : 2,
					"outlettype" : [ "", "bang" ],
					"parameter_enable" : 0,
					"patching_rect" : [ 408.124824583530426, 419.444446563720703, 50.0, 22.0 ]
				}

			}
, 			{
				"box" : 				{
					"bgcolor" : [ 0.0, 0.003921568627451, 0.545098039215686, 1.0 ],
					"format" : 6,
					"id" : "obj-16",
					"maxclass" : "flonum",
					"numinlets" : 1,
					"numoutlets" : 2,
					"outlettype" : [ "", "bang" ],
					"parameter_enable" : 0,
					"patching_rect" : [ 228.124816000461578, 420.555557727813721, 50.0, 22.0 ]
				}

			}
, 			{
				"box" : 				{
					"format" : 6,
					"id" : "obj-9",
					"maxclass" : "flonum",
					"numinlets" : 1,
					"numoutlets" : 2,
					"outlettype" : [ "", "bang" ],
					"parameter_enable" : 0,
					"patching_rect" : [ 152.569256842136383, 420.555557727813721, 50.0, 22.0 ]
				}

			}
, 			{
				"box" : 				{
					"id" : "obj-7",
					"maxclass" : "newobj",
					"numinlets" : 3,
					"numoutlets" : 2,
					"outlettype" : [ "int", "int" ],
					"patching_rect" : [ 811.458177149295807, 882.222225666046143, 63.0, 22.0 ],
					"text" : "split 1 127"
				}

			}
, 			{
				"box" : 				{
					"id" : "obj-4",
					"maxclass" : "newobj",
					"numinlets" : 1,
					"numoutlets" : 1,
					"outlettype" : [ "" ],
					"patching_rect" : [ 225.185179769992828, 224.444439053535461, 32.0, 22.0 ],
					"text" : "mtof"
				}

			}
, 			{
				"box" : 				{
					"format" : 6,
					"id" : "obj-2",
					"maxclass" : "flonum",
					"numinlets" : 1,
					"numoutlets" : 2,
					"outlettype" : [ "", "bang" ],
					"parameter_enable" : 0,
					"patching_rect" : [ 225.185179769992828, 269.629622757434845, 50.0, 22.0 ]
				}

			}
, 			{
				"box" : 				{
					"automatic" : 1,
					"bufsize" : 256,
					"id" : "obj-25",
					"maxclass" : "scope~",
					"numinlets" : 2,
					"numoutlets" : 0,
					"patching_rect" : [ 137.013700544834137, 1007.777787208557129, 150.0, 150.0 ]
				}

			}
, 			{
				"box" : 				{
					"id" : "obj-98",
					"maxclass" : "spectroscope~",
					"numinlets" : 2,
					"numoutlets" : 1,
					"outlettype" : [ "" ],
					"patching_rect" : [ 464.791493952274323, 1007.777787208557129, 300.0, 150.0 ]
				}

			}
, 			{
				"box" : 				{
					"id" : "obj-43",
					"maxclass" : "ezdac~",
					"numinlets" : 2,
					"numoutlets" : 0,
					"patching_rect" : [ 75.90258651971817, 1007.777787208557129, 45.0, 45.0 ]
				}

			}
, 			{
				"box" : 				{
					"angle" : 270.0,
					"bgcolor" : [ 0.349019607843137, 0.694117647058824, 0.56078431372549, 0.33 ],
					"id" : "obj-100",
					"maxclass" : "panel",
					"mode" : 0,
					"numinlets" : 1,
					"numoutlets" : 0,
					"patching_rect" : [ 61.458141386508942, 360.555554866790771, 240.754828810691833, 209.754093647003174 ],
					"proportion" : 0.39
				}

			}
, 			{
				"box" : 				{
					"angle" : 270.0,
					"bgcolor" : [ 0.349019607843137, 0.694117647058824, 0.56078431372549, 0.33 ],
					"id" : "obj-115",
					"maxclass" : "panel",
					"mode" : 0,
					"numinlets" : 1,
					"numoutlets" : 0,
					"patching_rect" : [ 1083.680412352085114, 586.11112117767334, 240.017887651920319, 208.80569064617157 ],
					"proportion" : 0.39
				}

			}
, 			{
				"box" : 				{
					"angle" : 270.0,
					"bgcolor" : [ 0.349019607843137, 0.694117647058824, 0.56078431372549, 0.33 ],
					"id" : "obj-114",
					"maxclass" : "panel",
					"mode" : 0,
					"numinlets" : 1,
					"numoutlets" : 0,
					"patching_rect" : [ 828.124844610691071, 586.11112117767334, 240.017887651920319, 208.80569064617157 ],
					"proportion" : 0.39
				}

			}
, 			{
				"box" : 				{
					"angle" : 270.0,
					"bgcolor" : [ 0.349019607843137, 0.694117647058824, 0.56078431372549, 0.33 ],
					"id" : "obj-113",
					"maxclass" : "panel",
					"mode" : 0,
					"numinlets" : 1,
					"numoutlets" : 0,
					"patching_rect" : [ 572.569276869297028, 586.11112117767334, 240.017887651920319, 208.80569064617157 ],
					"proportion" : 0.39
				}

			}
, 			{
				"box" : 				{
					"angle" : 270.0,
					"bgcolor" : [ 0.349019607843137, 0.694117647058824, 0.56078431372549, 0.33 ],
					"id" : "obj-111",
					"maxclass" : "panel",
					"mode" : 0,
					"numinlets" : 1,
					"numoutlets" : 0,
					"patching_rect" : [ 319.23593145608902, 586.11112117767334, 240.017887651920319, 208.80569064617157 ],
					"proportion" : 0.39
				}

			}
, 			{
				"box" : 				{
					"angle" : 270.0,
					"bgcolor" : [ 0.349019607843137, 0.694117647058824, 0.56078431372549, 0.33 ],
					"id" : "obj-110",
					"maxclass" : "panel",
					"mode" : 0,
					"numinlets" : 1,
					"numoutlets" : 0,
					"patching_rect" : [ 62.569252550601959, 586.11112117767334, 240.017887651920319, 208.80569064617157 ],
					"proportion" : 0.39
				}

			}
, 			{
				"box" : 				{
					"angle" : 270.0,
					"bgcolor" : [ 0.349019607843137, 0.694117647058824, 0.56078431372549, 0.33 ],
					"id" : "obj-109",
					"maxclass" : "panel",
					"mode" : 0,
					"numinlets" : 1,
					"numoutlets" : 0,
					"patching_rect" : [ 1081.458190023899078, 360.555554866790771, 240.754828810691833, 209.754093647003174 ],
					"proportion" : 0.39
				}

			}
, 			{
				"box" : 				{
					"angle" : 270.0,
					"bgcolor" : [ 0.349019607843137, 0.694117647058824, 0.56078431372549, 0.33 ],
					"id" : "obj-107",
					"maxclass" : "panel",
					"mode" : 0,
					"numinlets" : 1,
					"numoutlets" : 0,
					"patching_rect" : [ 827.013733446598053, 360.555554866790771, 240.754828810691833, 209.754093647003174 ],
					"proportion" : 0.39
				}

			}
, 			{
				"box" : 				{
					"angle" : 270.0,
					"bgcolor" : [ 0.349019607843137, 0.694117647058824, 0.56078431372549, 0.33 ],
					"id" : "obj-106",
					"maxclass" : "panel",
					"mode" : 0,
					"numinlets" : 1,
					"numoutlets" : 0,
					"patching_rect" : [ 572.569276869297028, 360.555554866790771, 240.754828810691833, 209.754093647003174 ],
					"proportion" : 0.39
				}

			}
, 			{
				"box" : 				{
					"angle" : 270.0,
					"bgcolor" : [ 0.349019607843137, 0.694117647058824, 0.56078431372549, 0.33 ],
					"id" : "obj-101",
					"maxclass" : "panel",
					"mode" : 0,
					"numinlets" : 1,
					"numoutlets" : 0,
					"patching_rect" : [ 317.013709127902985, 360.555554866790771, 240.754828810691833, 209.754093647003174 ],
					"proportion" : 0.39
				}

			}
, 			{
				"box" : 				{
					"angle" : 270.0,
					"bgcolor" : [ 0.349019607843137, 0.694117647058824, 0.56078431372549, 0.33 ],
					"id" : "obj-116",
					"maxclass" : "panel",
					"mode" : 0,
					"numinlets" : 1,
					"numoutlets" : 0,
					"patching_rect" : [ 793.680398523807526, 810.0, 210.0, 448.536597490310669 ],
					"proportion" : 0.39
				}

			}
, 			{
				"box" : 				{
					"angle" : 270.0,
					"bgcolor" : [ 0.349019607843137, 0.694117647058824, 0.56078431372549, 0.33 ],
					"id" : "obj-117",
					"maxclass" : "panel",
					"mode" : 0,
					"numinlets" : 1,
					"numoutlets" : 0,
					"patching_rect" : [ 62.569252550601959, 810.0, 720.0, 360.243902802467346 ],
					"proportion" : 0.39
				}

			}
, 			{
				"box" : 				{
					"angle" : 270.0,
					"bgcolor" : [ 0.349019607843137, 0.694117647058824, 0.56078431372549, 0.33 ],
					"id" : "obj-193",
					"maxclass" : "panel",
					"mode" : 0,
					"numinlets" : 1,
					"numoutlets" : 0,
					"patching_rect" : [ 209.629624724388123, 60.0, 405.590901255607605, 285.0 ],
					"proportion" : 0.39
				}

			}
, 			{
				"box" : 				{
					"angle" : 270.0,
					"bgcolor" : [ 0.349019607843137, 0.694117647058824, 0.56078431372549, 0.33 ],
					"id" : "obj-194",
					"maxclass" : "panel",
					"mode" : 0,
					"numinlets" : 1,
					"numoutlets" : 0,
					"patching_rect" : [ 60.0, 60.0, 135.0, 165.0 ],
					"proportion" : 0.39
				}

			}
, 			{
				"box" : 				{
					"angle" : 270.0,
					"bgcolor" : [ 0.349019607843137, 0.694117647058824, 0.56078431372549, 0.33 ],
					"id" : "obj-195",
					"maxclass" : "panel",
					"mode" : 0,
					"numinlets" : 1,
					"numoutlets" : 0,
					"patching_rect" : [ 1334.444443702697754, 362.777777194976807, 794.068397581577301, 326.5 ],
					"proportion" : 0.39
				}

			}
, 			{
				"box" : 				{
					"angle" : 270.0,
					"bgcolor" : [ 0.349019607843137, 0.694117647058824, 0.56078431372549, 0.33 ],
					"id" : "obj-196",
					"maxclass" : "panel",
					"mode" : 0,
					"numinlets" : 1,
					"numoutlets" : 0,
					"patching_rect" : [ 1334.444443702697754, 705.000015735626221, 794.068397581577301, 326.5 ],
					"proportion" : 0.39
				}

			}
, 			{
				"box" : 				{
					"angle" : 270.0,
					"bgcolor" : [ 0.349019607843137, 0.694117647058824, 0.56078431372549, 0.33 ],
					"id" : "obj-20",
					"maxclass" : "panel",
					"mode" : 0,
					"numinlets" : 1,
					"numoutlets" : 0,
					"patching_rect" : [ 60.0, 238.0, 120.0, 107.0 ],
					"proportion" : 0.39
				}

			}
 ],
		"lines" : [ 			{
				"patchline" : 				{
					"destination" : [ "obj-6", 0 ],
					"source" : [ "obj-1", 0 ]
				}

			}
, 			{
				"patchline" : 				{
					"destination" : [ "obj-103", 0 ],
					"midpoints" : [ 953.180405676364899, 1119.922950685024261, 820.958177149295807, 1119.922950685024261 ],
					"source" : [ "obj-102", 0 ]
				}

			}
, 			{
				"patchline" : 				{
					"destination" : [ "obj-21", 0 ],
					"source" : [ "obj-103", 0 ]
				}

			}
, 			{
				"patchline" : 				{
					"destination" : [ "obj-105", 0 ],
					"source" : [ "obj-104", 0 ]
				}

			}
, 			{
				"patchline" : 				{
					"destination" : [ "obj-25", 0 ],
					"midpoints" : [ 85.40258651971817, 987.046629071235657, 146.513700544834137, 987.046629071235657 ],
					"order" : 2,
					"source" : [ "obj-105", 0 ]
				}

			}
, 			{
				"patchline" : 				{
					"destination" : [ "obj-43", 1 ],
					"midpoints" : [ 85.40258651971817, 987.046629071235657, 111.40258651971817, 987.046629071235657 ],
					"order" : 3,
					"source" : [ "obj-105", 0 ]
				}

			}
, 			{
				"patchline" : 				{
					"destination" : [ "obj-43", 0 ],
					"midpoints" : [ 85.40258651971817, 987.046629071235657, 85.40258651971817, 987.046629071235657 ],
					"order" : 4,
					"source" : [ "obj-105", 0 ]
				}

			}
, 			{
				"patchline" : 				{
					"destination" : [ "obj-47", 0 ],
					"midpoints" : [ 85.40258651971817, 987.046629071235657, 310.958152830600739, 987.046629071235657 ],
					"order" : 1,
					"source" : [ "obj-105", 0 ]
				}

			}
, 			{
				"patchline" : 				{
					"destination" : [ "obj-98", 0 ],
					"midpoints" : [ 85.40258651971817, 987.046629071235657, 474.291493952274323, 987.046629071235657 ],
					"order" : 0,
					"source" : [ "obj-105", 0 ]
				}

			}
, 			{
				"patchline" : 				{
					"destination" : [ "obj-4", 0 ],
					"source" : [ "obj-11", 0 ]
				}

			}
, 			{
				"patchline" : 				{
					"destination" : [ "obj-121", 0 ],
					"source" : [ "obj-118", 0 ]
				}

			}
, 			{
				"patchline" : 				{
					"destination" : [ "obj-123", 0 ],
					"source" : [ "obj-121", 0 ]
				}

			}
, 			{
				"patchline" : 				{
					"destination" : [ "obj-125", 0 ],
					"source" : [ "obj-121", 1 ]
				}

			}
, 			{
				"patchline" : 				{
					"destination" : [ "obj-126", 0 ],
					"source" : [ "obj-121", 3 ]
				}

			}
, 			{
				"patchline" : 				{
					"destination" : [ "obj-127", 0 ],
					"source" : [ "obj-121", 2 ]
				}

			}
, 			{
				"patchline" : 				{
					"destination" : [ "obj-128", 0 ],
					"source" : [ "obj-121", 7 ]
				}

			}
, 			{
				"patchline" : 				{
					"destination" : [ "obj-129", 0 ],
					"source" : [ "obj-121", 6 ]
				}

			}
, 			{
				"patchline" : 				{
					"destination" : [ "obj-130", 0 ],
					"source" : [ "obj-121", 5 ]
				}

			}
, 			{
				"patchline" : 				{
					"destination" : [ "obj-131", 0 ],
					"source" : [ "obj-121", 4 ]
				}

			}
, 			{
				"patchline" : 				{
					"destination" : [ "obj-132", 0 ],
					"source" : [ "obj-121", 9 ]
				}

			}
, 			{
				"patchline" : 				{
					"destination" : [ "obj-133", 0 ],
					"source" : [ "obj-121", 8 ]
				}

			}
, 			{
				"patchline" : 				{
					"destination" : [ "obj-134", 0 ],
					"source" : [ "obj-123", 0 ]
				}

			}
, 			{
				"patchline" : 				{
					"destination" : [ "obj-138", 0 ],
					"source" : [ "obj-125", 0 ]
				}

			}
, 			{
				"patchline" : 				{
					"destination" : [ "obj-139", 0 ],
					"source" : [ "obj-126", 0 ]
				}

			}
, 			{
				"patchline" : 				{
					"destination" : [ "obj-140", 0 ],
					"source" : [ "obj-127", 0 ]
				}

			}
, 			{
				"patchline" : 				{
					"destination" : [ "obj-147", 0 ],
					"source" : [ "obj-128", 0 ]
				}

			}
, 			{
				"patchline" : 				{
					"destination" : [ "obj-148", 0 ],
					"source" : [ "obj-129", 0 ]
				}

			}
, 			{
				"patchline" : 				{
					"destination" : [ "obj-10", 0 ],
					"source" : [ "obj-13", 0 ]
				}

			}
, 			{
				"patchline" : 				{
					"destination" : [ "obj-142", 0 ],
					"source" : [ "obj-130", 0 ]
				}

			}
, 			{
				"patchline" : 				{
					"destination" : [ "obj-141", 0 ],
					"source" : [ "obj-131", 0 ]
				}

			}
, 			{
				"patchline" : 				{
					"destination" : [ "obj-145", 0 ],
					"source" : [ "obj-132", 0 ]
				}

			}
, 			{
				"patchline" : 				{
					"destination" : [ "obj-146", 0 ],
					"source" : [ "obj-133", 0 ]
				}

			}
, 			{
				"patchline" : 				{
					"destination" : [ "obj-103", 0 ],
					"source" : [ "obj-137", 0 ]
				}

			}
, 			{
				"patchline" : 				{
					"destination" : [ "obj-53", 0 ],
					"source" : [ "obj-149", 0 ]
				}

			}
, 			{
				"patchline" : 				{
					"destination" : [ "obj-45", 0 ],
					"source" : [ "obj-150", 0 ]
				}

			}
, 			{
				"patchline" : 				{
					"destination" : [ "obj-36", 0 ],
					"source" : [ "obj-151", 0 ]
				}

			}
, 			{
				"patchline" : 				{
					"destination" : [ "obj-28", 0 ],
					"source" : [ "obj-152", 0 ]
				}

			}
, 			{
				"patchline" : 				{
					"destination" : [ "obj-9", 0 ],
					"source" : [ "obj-153", 0 ]
				}

			}
, 			{
				"patchline" : 				{
					"destination" : [ "obj-61", 0 ],
					"source" : [ "obj-154", 0 ]
				}

			}
, 			{
				"patchline" : 				{
					"destination" : [ "obj-69", 0 ],
					"source" : [ "obj-155", 0 ]
				}

			}
, 			{
				"patchline" : 				{
					"destination" : [ "obj-77", 0 ],
					"source" : [ "obj-156", 0 ]
				}

			}
, 			{
				"patchline" : 				{
					"destination" : [ "obj-85", 0 ],
					"source" : [ "obj-157", 0 ]
				}

			}
, 			{
				"patchline" : 				{
					"destination" : [ "obj-93", 0 ],
					"source" : [ "obj-158", 0 ]
				}

			}
, 			{
				"patchline" : 				{
					"destination" : [ "obj-38", 2 ],
					"source" : [ "obj-16", 0 ]
				}

			}
, 			{
				"patchline" : 				{
					"destination" : [ "obj-159", 0 ],
					"source" : [ "obj-169", 0 ]
				}

			}
, 			{
				"patchline" : 				{
					"destination" : [ "obj-108", 0 ],
					"source" : [ "obj-17", 0 ]
				}

			}
, 			{
				"patchline" : 				{
					"destination" : [ "obj-160", 0 ],
					"source" : [ "obj-170", 0 ]
				}

			}
, 			{
				"patchline" : 				{
					"destination" : [ "obj-161", 0 ],
					"source" : [ "obj-171", 0 ]
				}

			}
, 			{
				"patchline" : 				{
					"destination" : [ "obj-162", 0 ],
					"source" : [ "obj-172", 0 ]
				}

			}
, 			{
				"patchline" : 				{
					"destination" : [ "obj-163", 0 ],
					"source" : [ "obj-173", 0 ]
				}

			}
, 			{
				"patchline" : 				{
					"destination" : [ "obj-164", 0 ],
					"source" : [ "obj-174", 0 ]
				}

			}
, 			{
				"patchline" : 				{
					"destination" : [ "obj-165", 0 ],
					"source" : [ "obj-175", 0 ]
				}

			}
, 			{
				"patchline" : 				{
					"destination" : [ "obj-166", 0 ],
					"source" : [ "obj-176", 0 ]
				}

			}
, 			{
				"patchline" : 				{
					"destination" : [ "obj-167", 0 ],
					"source" : [ "obj-177", 0 ]
				}

			}
, 			{
				"patchline" : 				{
					"destination" : [ "obj-168", 0 ],
					"source" : [ "obj-178", 0 ]
				}

			}
, 			{
				"patchline" : 				{
					"destination" : [ "obj-169", 0 ],
					"source" : [ "obj-179", 9 ]
				}

			}
, 			{
				"patchline" : 				{
					"destination" : [ "obj-170", 0 ],
					"source" : [ "obj-179", 8 ]
				}

			}
, 			{
				"patchline" : 				{
					"destination" : [ "obj-171", 0 ],
					"source" : [ "obj-179", 7 ]
				}

			}
, 			{
				"patchline" : 				{
					"destination" : [ "obj-172", 0 ],
					"source" : [ "obj-179", 6 ]
				}

			}
, 			{
				"patchline" : 				{
					"destination" : [ "obj-173", 0 ],
					"source" : [ "obj-179", 5 ]
				}

			}
, 			{
				"patchline" : 				{
					"destination" : [ "obj-174", 0 ],
					"source" : [ "obj-179", 4 ]
				}

			}
, 			{
				"patchline" : 				{
					"destination" : [ "obj-175", 0 ],
					"source" : [ "obj-179", 3 ]
				}

			}
, 			{
				"patchline" : 				{
					"destination" : [ "obj-176", 0 ],
					"source" : [ "obj-179", 2 ]
				}

			}
, 			{
				"patchline" : 				{
					"destination" : [ "obj-177", 0 ],
					"source" : [ "obj-179", 1 ]
				}

			}
, 			{
				"patchline" : 				{
					"destination" : [ "obj-178", 0 ],
					"source" : [ "obj-179", 0 ]
				}

			}
, 			{
				"patchline" : 				{
					"destination" : [ "obj-104", 0 ],
					"source" : [ "obj-18", 0 ]
				}

			}
, 			{
				"patchline" : 				{
					"destination" : [ "obj-179", 0 ],
					"source" : [ "obj-180", 0 ]
				}

			}
, 			{
				"patchline" : 				{
					"destination" : [ "obj-56", 0 ],
					"source" : [ "obj-183", 0 ]
				}

			}
, 			{
				"patchline" : 				{
					"destination" : [ "obj-64", 0 ],
					"source" : [ "obj-184", 0 ]
				}

			}
, 			{
				"patchline" : 				{
					"destination" : [ "obj-72", 0 ],
					"source" : [ "obj-185", 0 ]
				}

			}
, 			{
				"patchline" : 				{
					"destination" : [ "obj-80", 0 ],
					"source" : [ "obj-186", 0 ]
				}

			}
, 			{
				"patchline" : 				{
					"destination" : [ "obj-88", 0 ],
					"source" : [ "obj-187", 0 ]
				}

			}
, 			{
				"patchline" : 				{
					"destination" : [ "obj-48", 0 ],
					"source" : [ "obj-188", 0 ]
				}

			}
, 			{
				"patchline" : 				{
					"destination" : [ "obj-39", 0 ],
					"source" : [ "obj-189", 0 ]
				}

			}
, 			{
				"patchline" : 				{
					"destination" : [ "obj-31", 0 ],
					"source" : [ "obj-190", 0 ]
				}

			}
, 			{
				"patchline" : 				{
					"destination" : [ "obj-22", 0 ],
					"source" : [ "obj-191", 0 ]
				}

			}
, 			{
				"patchline" : 				{
					"destination" : [ "obj-16", 0 ],
					"source" : [ "obj-192", 0 ]
				}

			}
, 			{
				"patchline" : 				{
					"destination" : [ "obj-3", 0 ],
					"source" : [ "obj-2", 0 ]
				}

			}
, 			{
				"patchline" : 				{
					"destination" : [ "obj-27", 2 ],
					"source" : [ "obj-22", 0 ]
				}

			}
, 			{
				"patchline" : 				{
					"destination" : [ "obj-104", 1 ],
					"source" : [ "obj-23", 0 ]
				}

			}
, 			{
				"patchline" : 				{
					"destination" : [ "obj-24", 0 ],
					"source" : [ "obj-27", 0 ]
				}

			}
, 			{
				"patchline" : 				{
					"destination" : [ "obj-26", 0 ],
					"source" : [ "obj-27", 1 ]
				}

			}
, 			{
				"patchline" : 				{
					"destination" : [ "obj-27", 1 ],
					"source" : [ "obj-28", 0 ]
				}

			}
, 			{
				"patchline" : 				{
					"destination" : [ "obj-60", 0 ],
					"source" : [ "obj-30", 0 ]
				}

			}
, 			{
				"patchline" : 				{
					"destination" : [ "obj-40", 2 ],
					"source" : [ "obj-31", 0 ]
				}

			}
, 			{
				"patchline" : 				{
					"destination" : [ "obj-27", 0 ],
					"source" : [ "obj-32", 0 ]
				}

			}
, 			{
				"patchline" : 				{
					"destination" : [ "obj-40", 0 ],
					"source" : [ "obj-33", 0 ]
				}

			}
, 			{
				"patchline" : 				{
					"destination" : [ "obj-40", 1 ],
					"source" : [ "obj-36", 0 ]
				}

			}
, 			{
				"patchline" : 				{
					"destination" : [ "obj-14", 0 ],
					"source" : [ "obj-38", 1 ]
				}

			}
, 			{
				"patchline" : 				{
					"destination" : [ "obj-15", 0 ],
					"source" : [ "obj-38", 0 ]
				}

			}
, 			{
				"patchline" : 				{
					"destination" : [ "obj-52", 2 ],
					"source" : [ "obj-39", 0 ]
				}

			}
, 			{
				"patchline" : 				{
					"destination" : [ "obj-2", 0 ],
					"source" : [ "obj-4", 0 ]
				}

			}
, 			{
				"patchline" : 				{
					"destination" : [ "obj-34", 0 ],
					"source" : [ "obj-40", 0 ]
				}

			}
, 			{
				"patchline" : 				{
					"destination" : [ "obj-35", 0 ],
					"source" : [ "obj-40", 1 ]
				}

			}
, 			{
				"patchline" : 				{
					"destination" : [ "obj-52", 1 ],
					"source" : [ "obj-45", 0 ]
				}

			}
, 			{
				"patchline" : 				{
					"destination" : [ "obj-58", 2 ],
					"source" : [ "obj-48", 0 ]
				}

			}
, 			{
				"patchline" : 				{
					"destination" : [ "obj-52", 0 ],
					"source" : [ "obj-49", 0 ]
				}

			}
, 			{
				"patchline" : 				{
					"destination" : [ "obj-11", 0 ],
					"source" : [ "obj-5", 0 ]
				}

			}
, 			{
				"patchline" : 				{
					"destination" : [ "obj-30", 0 ],
					"source" : [ "obj-5", 1 ]
				}

			}
, 			{
				"patchline" : 				{
					"destination" : [ "obj-50", 0 ],
					"source" : [ "obj-52", 0 ]
				}

			}
, 			{
				"patchline" : 				{
					"destination" : [ "obj-51", 0 ],
					"source" : [ "obj-52", 1 ]
				}

			}
, 			{
				"patchline" : 				{
					"destination" : [ "obj-58", 1 ],
					"source" : [ "obj-53", 0 ]
				}

			}
, 			{
				"patchline" : 				{
					"destination" : [ "obj-99", 2 ],
					"source" : [ "obj-56", 0 ]
				}

			}
, 			{
				"patchline" : 				{
					"destination" : [ "obj-55", 0 ],
					"source" : [ "obj-58", 0 ]
				}

			}
, 			{
				"patchline" : 				{
					"destination" : [ "obj-57", 0 ],
					"source" : [ "obj-58", 1 ]
				}

			}
, 			{
				"patchline" : 				{
					"destination" : [ "obj-58", 0 ],
					"source" : [ "obj-59", 0 ]
				}

			}
, 			{
				"patchline" : 				{
					"destination" : [ "obj-17", 0 ],
					"source" : [ "obj-6", 0 ]
				}

			}
, 			{
				"patchline" : 				{
					"destination" : [ "obj-99", 1 ],
					"source" : [ "obj-61", 0 ]
				}

			}
, 			{
				"patchline" : 				{
					"destination" : [ "obj-7", 0 ],
					"source" : [ "obj-63", 0 ]
				}

			}
, 			{
				"patchline" : 				{
					"destination" : [ "obj-90", 2 ],
					"source" : [ "obj-64", 0 ]
				}

			}
, 			{
				"patchline" : 				{
					"destination" : [ "obj-68", 0 ],
					"source" : [ "obj-65", 0 ]
				}

			}
, 			{
				"patchline" : 				{
					"destination" : [ "obj-66", 0 ],
					"source" : [ "obj-68", 0 ]
				}

			}
, 			{
				"patchline" : 				{
					"destination" : [ "obj-67", 0 ],
					"source" : [ "obj-68", 1 ]
				}

			}
, 			{
				"patchline" : 				{
					"destination" : [ "obj-90", 1 ],
					"source" : [ "obj-69", 0 ]
				}

			}
, 			{
				"patchline" : 				{
					"destination" : [ "obj-102", 0 ],
					"midpoints" : [ 864.958177149295807, 910.292556524276733, 953.180405676364899, 910.292556524276733 ],
					"source" : [ "obj-7", 1 ]
				}

			}
, 			{
				"patchline" : 				{
					"destination" : [ "obj-95", 0 ],
					"source" : [ "obj-7", 0 ]
				}

			}
, 			{
				"patchline" : 				{
					"destination" : [ "obj-75", 0 ],
					"source" : [ "obj-71", 0 ]
				}

			}
, 			{
				"patchline" : 				{
					"destination" : [ "obj-82", 2 ],
					"source" : [ "obj-72", 0 ]
				}

			}
, 			{
				"patchline" : 				{
					"destination" : [ "obj-73", 0 ],
					"source" : [ "obj-75", 0 ]
				}

			}
, 			{
				"patchline" : 				{
					"destination" : [ "obj-74", 0 ],
					"source" : [ "obj-75", 1 ]
				}

			}
, 			{
				"patchline" : 				{
					"destination" : [ "obj-82", 0 ],
					"source" : [ "obj-76", 0 ]
				}

			}
, 			{
				"patchline" : 				{
					"destination" : [ "obj-82", 1 ],
					"source" : [ "obj-77", 0 ]
				}

			}
, 			{
				"patchline" : 				{
					"destination" : [ "obj-38", 0 ],
					"source" : [ "obj-8", 0 ]
				}

			}
, 			{
				"patchline" : 				{
					"destination" : [ "obj-75", 2 ],
					"source" : [ "obj-80", 0 ]
				}

			}
, 			{
				"patchline" : 				{
					"destination" : [ "obj-79", 0 ],
					"source" : [ "obj-82", 0 ]
				}

			}
, 			{
				"patchline" : 				{
					"destination" : [ "obj-81", 0 ],
					"source" : [ "obj-82", 1 ]
				}

			}
, 			{
				"patchline" : 				{
					"destination" : [ "obj-90", 0 ],
					"source" : [ "obj-84", 0 ]
				}

			}
, 			{
				"patchline" : 				{
					"destination" : [ "obj-75", 1 ],
					"source" : [ "obj-85", 0 ]
				}

			}
, 			{
				"patchline" : 				{
					"destination" : [ "obj-68", 2 ],
					"source" : [ "obj-88", 0 ]
				}

			}
, 			{
				"patchline" : 				{
					"destination" : [ "obj-38", 1 ],
					"source" : [ "obj-9", 0 ]
				}

			}
, 			{
				"patchline" : 				{
					"destination" : [ "obj-87", 0 ],
					"source" : [ "obj-90", 0 ]
				}

			}
, 			{
				"patchline" : 				{
					"destination" : [ "obj-89", 0 ],
					"source" : [ "obj-90", 1 ]
				}

			}
, 			{
				"patchline" : 				{
					"destination" : [ "obj-99", 0 ],
					"source" : [ "obj-91", 0 ]
				}

			}
, 			{
				"patchline" : 				{
					"destination" : [ "obj-68", 1 ],
					"source" : [ "obj-93", 0 ]
				}

			}
, 			{
				"patchline" : 				{
					"destination" : [ "obj-96", 0 ],
					"order" : 1,
					"source" : [ "obj-95", 0 ]
				}

			}
, 			{
				"patchline" : 				{
					"destination" : [ "obj-97", 0 ],
					"midpoints" : [ 820.958177149295807, 968.68706202507019, 859.847067892551422, 968.68706202507019 ],
					"order" : 0,
					"source" : [ "obj-95", 0 ]
				}

			}
, 			{
				"patchline" : 				{
					"destination" : [ "obj-137", 0 ],
					"source" : [ "obj-96", 0 ]
				}

			}
, 			{
				"patchline" : 				{
					"destination" : [ "obj-96", 1 ],
					"source" : [ "obj-97", 0 ]
				}

			}
, 			{
				"patchline" : 				{
					"destination" : [ "obj-92", 0 ],
					"source" : [ "obj-99", 0 ]
				}

			}
, 			{
				"patchline" : 				{
					"destination" : [ "obj-94", 0 ],
					"source" : [ "obj-99", 1 ]
				}

			}
 ],
		"dependency_cache" : [ 			{
				"name" : "additiveOscillator.maxpat",
				"bootpath" : "~/Library/Mobile Documents/com~apple~CloudDocs/Max/New Tutorial/06",
				"patcherrelativepath" : ".",
				"type" : "JSON",
				"implicit" : 1
			}
 ],
		"autosave" : 0
	}

}
